<?xml version="1.0" encoding="UTF-8"?>
<svg id="Layer_2" data-name="Layer 2" xmlns="http://www.w3.org/2000/svg" viewBox="0 0 408.95 323.36">
  <defs>
    <style>
      .cls-1 {
        stroke: #7b3b24;
        stroke-width: .42px;
      }

      .cls-1, .cls-2, .cls-3, .cls-4, .cls-5, .cls-6, .cls-7, .cls-8, .cls-9, .cls-10, .cls-11, .cls-12, .cls-13, .cls-14, .cls-15, .cls-16, .cls-17, .cls-18, .cls-19, .cls-20, .cls-21 {
        fill: none;
      }

      .cls-1, .cls-2, .cls-3, .cls-5, .cls-22, .cls-6, .cls-7, .cls-8, .cls-9, .cls-10, .cls-12, .cls-14, .cls-15, .cls-17, .cls-18, .cls-19, .cls-20 {
        stroke-miterlimit: 10;
      }

      .cls-23 {
        fill: #dd7c6f;
      }

      .cls-24 {
        fill: #d78e66;
      }

      .cls-25 {
        fill: #0e1a26;
      }

      .cls-26 {
        fill: #091227;
      }

      .cls-27, .cls-28 {
        fill: #fff;
      }

      .cls-29 {
        fill: #ffc840;
      }

      .cls-30 {
        fill: #8c4a40;
      }

      .cls-2 {
        stroke: #d3d3d3;
      }

      .cls-2, .cls-9, .cls-10, .cls-11 {
        stroke-width: .35px;
      }

      .cls-31 {
        fill: #fff7ee;
      }

      .cls-32 {
        fill: #1e629b;
      }

      .cls-33 {
        fill: #68eaea;
      }

      .cls-34 {
        fill: #dd8c76;
      }

      .cls-35 {
        fill: #c65842;
      }

      .cls-36 {
        fill: #0d131b;
      }

      .cls-37 {
        fill: #d87100;
      }

      .cls-38 {
        fill: #413aa3;
      }

      .cls-39 {
        fill: #2d2730;
      }

      .cls-3 {
        stroke-width: .42px;
      }

      .cls-3, .cls-12 {
        stroke: #2f8e8b;
      }

      .cls-4 {
        stroke-width: .59px;
      }

      .cls-4, .cls-11, .cls-13, .cls-16, .cls-21 {
        stroke-linecap: round;
        stroke-linejoin: round;
      }

      .cls-4, .cls-21 {
        stroke: #fefcf8;
      }

      .cls-40 {
        fill: #fefcf8;
      }

      .cls-41 {
        fill: #f28600;
      }

      .cls-42 {
        fill: #c97e59;
      }

      .cls-43 {
        fill: #383863;
      }

      .cls-44 {
        fill: #622b25;
      }

      .cls-45 {
        fill: #f8c83d;
      }

      .cls-46 {
        fill: #b8fffd;
      }

      .cls-47 {
        fill: #909099;
      }

      .cls-48 {
        fill: #1b1b1b;
      }

      .cls-49 {
        fill: #2e6ab7;
      }

      .cls-50 {
        fill: #5144b0;
      }

      .cls-51 {
        fill: #ffa083;
      }

      .cls-52 {
        fill: #222247;
      }

      .cls-53 {
        fill: #f2a58b;
      }

      .cls-54 {
        fill: #241d7f;
      }

      .cls-55 {
        fill: #3980c6;
      }

      .cls-56 {
        fill: #ef7265;
      }

      .cls-57 {
        letter-spacing: 0em;
      }

      .cls-58 {
        fill: #afc893;
      }

      .cls-5 {
        stroke: #622b25;
        stroke-width: .34px;
      }

      .cls-22 {
        stroke: #3a1c1a;
        stroke-width: .59px;
      }

      .cls-22, .cls-59 {
        fill: #3a1c1a;
      }

      .cls-6 {
        stroke-width: 3px;
      }

      .cls-6, .cls-8 {
        stroke: #fff7ee;
      }

      .cls-7 {
        stroke: #5c382d;
        stroke-width: .1px;
      }

      .cls-8 {
        stroke-width: .25px;
      }

      .cls-9 {
        stroke: #bc645b;
      }

      .cls-60 {
        fill: #f5a800;
      }

      .cls-61 {
        fill: #fdfdfd;
      }

      .cls-10 {
        stroke: #dd7c6f;
      }

      .cls-11 {
        stroke: #87534c;
      }

      .cls-12 {
        stroke-width: .49px;
      }

      .cls-13 {
        stroke: #eaab40;
        stroke-width: .22px;
      }

      .cls-14 {
        stroke: #222247;
        stroke-width: .35px;
      }

      .cls-15 {
        stroke: #fff;
        stroke-width: .99px;
      }

      .cls-62 {
        fill: #ab4a2e;
      }

      .cls-63 {
        fill: #373099;
      }

      .cls-64 {
        fill: #231411;
      }

      .cls-16 {
        stroke: #2d2730;
        stroke-width: 1.41px;
      }

      .cls-65 {
        fill: #10192b;
      }

      .cls-66 {
        fill: #f0fffe;
      }

      .cls-67 {
        fill: #a5a5f9;
      }

      .cls-68 {
        fill: #6f4828;
      }

      .cls-17 {
        stroke: #6a3837;
      }

      .cls-17, .cls-20 {
        stroke-width: .15px;
      }

      .cls-18 {
        stroke: #5144b0;
      }

      .cls-19 {
        stroke: #7465c4;
      }

      .cls-69 {
        fill: #071321;
      }

      .cls-70 {
        letter-spacing: -.01em;
      }

      .cls-71 {
        fill: #66a2eb;
      }

      .cls-72 {
        fill: #0a1227;
      }

      .cls-73 {
        fill: #db414d;
      }

      .cls-74 {
        fill: #cfcfff;
      }

      .cls-28 {
        font-family: Bebas-Regular, 'Bebas Regular';
        font-size: 19.12px;
      }

      .cls-20 {
        stroke: #071321;
      }

      .cls-75 {
        fill: #39373a;
      }

      .cls-76 {
        fill: #7465c4;
      }

      .cls-21 {
        stroke-width: .64px;
      }

      .cls-77 {
        fill: #efe9e4;
      }

      .cls-78 {
        fill: #fefefe;
      }

      .cls-79 {
        fill: #fcfcfc;
      }
    </style>
  </defs>
  <g id="OBJECTS">
    <g>
      <circle class="cls-67" cx="115.51" cy="34.25" r="27.07" transform="translate(55.93 138.96) rotate(-76.87)"/>
      <g>
        <circle class="cls-50" cx="110.73" cy="27.07" r="27.07" transform="translate(58.66 128.47) rotate(-76.56)"/>
        <g>
          <path class="cls-74" d="m133.14,27.07c0,12.38-10.03,22.41-22.41,22.41-8.04,0-15.09-4.23-19.04-10.59-2.15-3.43-3.38-7.48-3.38-11.82,0-12.38,10.04-22.41,22.42-22.41,2.49,0,4.89.41,7.13,1.17,8.88,2.97,15.28,11.35,15.28,21.24Z"/>
          <path class="cls-27" d="m121.22,17.64c0,12.37-10.03,22.41-22.41,22.41-2.49,0-4.88-.41-7.12-1.16-2.15-3.43-3.38-7.48-3.38-11.82,0-12.38,10.04-22.41,22.42-22.41,2.49,0,4.89.41,7.13,1.17,2.13,3.43,3.36,7.48,3.36,11.81Z"/>
        </g>
        <polyline class="cls-18" points="110.73 16.27 110.73 29.5 119.1 29.5"/>
      </g>
    </g>
    <g>
      <rect class="cls-52" x="168.85" y="147.35" width="76.14" height="6.71"/>
      <g>
        <polygon class="cls-52" points="221.59 154.05 168.35 154.05 159.67 111.88 212.91 111.88 221.59 154.05"/>
        <path class="cls-43" d="m185.72,154.05h-17.37l-8.67-42.18h26.05c10.01,0,18.64,7.04,20.66,16.84h0c2.69,13.08-7.3,25.34-20.66,25.34Z"/>
      </g>
    </g>
    <g>
      <g>
        <path class="cls-46" d="m372.66,124.31c.24.09.5.15.78.18,4.91.51,11.15-.59,15.68-2.46,2.12-.88,4.35-2.43,4.51-4.72.15-2.17-1.76-4.06-3.86-4.62-.83-.22-1.68-.28-2.53-.25,2.05-.55,4.01-1.41,5.79-2.55,2.1-1.34,4.13-3.6,3.52-6.01-.51-2-2.75-3.17-4.81-3.14-1.49.02-2.91.52-4.28,1.14,3.52-1.97,6.18-5.47,7.05-9.42.46-2.08.27-4.62-1.49-5.83-.1-.07-.2-.13-.3-.19-9.35,10.95-16.25,23.98-20.06,37.87Z"/>
        <g>
          <path class="cls-33" d="m363.61,105.66c0,1.95.88,3.78,1.73,5.53,1.34,2.78,2.69,5.55,4.03,8.33.87,1.8,1.42,4.11,3.29,4.79,3.81-13.88,10.71-26.92,20.06-37.87-1.97-1.08-4.58.05-6.27,1.63-3.39,3.17-4.94,7.78-6.31,12.21,0-1.31.01-2.66-.49-3.87-.5-1.21-1.64-2.25-2.95-2.22-1.88.04-3.01,2.09-3.51,3.9-.88,3.21-1,6.63-.34,9.89-.38-1.69-.79-3.43-1.8-4.83-1.01-1.41-2.78-2.42-4.46-2.01-1.89.46-3.01,2.56-3,4.51Z"/>
          <path class="cls-3" d="m392.72,86.45s-.03.04-.05.06c-.23.27-.45.53-.68.8-.18.22-.36.43-.54.65-.06.08-.13.15-.19.23-.02.03-.04.06-.07.08-.19.23-.38.47-.57.71-.03.04-.07.08-.1.13-.22.28-.44.56-.66.83-.02.02-.04.05-.05.07-.21.27-.42.55-.63.83-.19.25-.37.49-.56.74-.01.01-.02.03-.03.04-.06.08-.12.16-.17.24-.19.26-.38.52-.57.78,0,0,0,0,0,.01-.21.3-.43.6-.64.9-.04.05-.07.11-.11.16-.15.22-.3.43-.45.65-.03.04-.05.08-.08.11-.01.01-.02.03-.03.04-.19.27-.37.54-.55.81-.02.03-.04.07-.07.1-.17.25-.34.5-.5.75l-.04.06c-.07.11-.14.22-.21.33-.02.03-.04.06-.06.09-.11.17-.22.33-.32.5-.02.03-.04.06-.06.09-.18.28-.36.57-.54.86-.07.11-.14.22-.21.33-.01.02-.03.04-.04.07-.15.24-.3.49-.45.73-.19.31-.37.61-.55.92-.03.05-.07.11-.1.17-.16.27-.32.55-.48.82,0,.02-.02.04-.03.05-.18.32-.36.64-.54.95-.19.33-.37.66-.55.99-.17.31-.33.61-.49.92-.02.04-.04.07-.06.11-.16.3-.32.61-.48.91,0,.01-.01.03-.02.04,0,0,0,.02-.01.03-.01.03-.03.05-.04.08-.15.28-.29.57-.44.85-.02.03-.03.07-.05.11-.16.32-.32.64-.48.96h0c-.13.26-.25.52-.38.79-.04.09-.09.18-.13.27-.13.27-.26.55-.39.82-.05.1-.09.2-.14.3-.14.29-.27.58-.4.88,0,0,0,.01,0,.01-.15.34-.3.67-.44,1.01,0,0,0,0,0,.01-.01.03-.03.06-.04.1-.11.25-.21.5-.32.75-.02.05-.04.09-.06.14-.02.04-.03.07-.05.11-.13.3-.25.6-.37.9-.1.25-.21.51-.31.77-.06.15-.12.3-.18.45-.15.38-.29.75-.44,1.13-.01.03-.02.06-.04.1-.1.25-.19.51-.29.76,0,.03-.02.06-.03.09-.12.33-.24.66-.36.99-.19.54-.38,1.08-.56,1.62-.05.15-.1.3-.15.45-.05.15-.1.31-.15.47-.08.24-.16.48-.23.72-.05.17-.11.33-.16.5,0,.03-.02.05-.02.08-.11.35-.22.7-.32,1.06-.08.27-.16.55-.24.82-.04.14-.08.27-.12.41-.01.05-.03.09-.04.13-.04.15-.08.3-.13.45,0,.03-.02.06-.03.09"/>
          <g>
            <path class="cls-3" d="m391.17,93.87c-1.68,1.23-3.62,2.11-5.65,2.57"/>
            <path class="cls-3" d="m391.68,105.48c-4.08,1.36-8.75,2.44-13.05,2.46-2.54-2.93-3.36-7.26-2.05-10.92"/>
            <path class="cls-3" d="m387.99,116.39c-4.24,1.82-9.18,2.93-13.69,1.95-1.02-.22-1.78-1.04-2.42-1.86-2.35-3.06-3.8-6.8-4.14-10.64"/>
            <path class="cls-3" d="m385.39,96.49c-.44-.97-.43-2.1-.19-3.14.24-1.04.71-2.01,1.17-2.98"/>
          </g>
        </g>
      </g>
      <g>
        <path class="cls-46" d="m373.32,124.4c.25-.15.5-.34.74-.58,4.06-4.05,7.65-10.49,9.28-15.94.77-2.56,1-5.71-.95-7.53-1.85-1.73-4.95-1.4-7,.09-.81.59-1.49,1.31-2.08,2.1,1-2.25,1.67-4.65,1.95-7.09.33-2.87-.21-6.37-2.83-7.58-2.18-1.01-4.87.15-6.36,2.04-1.07,1.36-1.67,3-2.12,4.69.81-4.62-.4-9.59-3.32-13.27-1.54-1.94-3.97-3.63-6.35-2.94-.13.04-.27.08-.39.14,3.01,16.46,9.7,32.25,19.43,45.87Z"/>
        <g>
          <path class="cls-33" d="m349.85,118.88c1.76,1.42,4.05,1.98,6.26,2.5,3.49.83,6.98,1.65,10.47,2.47,2.26.53,4.74,1.73,6.74.55-9.72-13.62-16.41-29.41-19.43-45.87-2.42.98-3.31,4.17-3.13,6.84.37,5.38,3.39,10.16,6.38,14.65-1.17-.97-2.39-1.96-3.84-2.4-1.45-.44-3.23-.17-4.16,1.03-1.34,1.73-.33,4.25.94,6.02,2.25,3.15,5.25,5.76,8.67,7.57-1.8-.89-3.67-1.8-5.68-1.92-2.01-.12-4.22.73-5.09,2.55-.97,2.05.1,4.6,1.87,6.02Z"/>
          <path class="cls-12" d="m353.89,78.52s.01.06.02.09c.07.4.15.8.23,1.2.06.32.13.64.19.96.02.11.05.22.07.34,0,.04.02.08.03.12.07.35.14.69.22,1.03.01.06.03.12.04.18.09.4.18.8.27,1.2,0,.03.02.07.02.1.09.39.18.78.28,1.18.08.35.17.7.26,1.04,0,.02.01.04.01.06.03.11.06.22.09.33.09.36.19.72.28,1.08,0,0,0,.01,0,.02.11.41.22.82.34,1.23.02.07.04.14.06.22.08.3.17.59.26.89.01.05.03.1.04.15,0,.02,0,.04.02.06.11.36.21.73.33,1.09.01.04.03.09.04.13.1.34.2.67.31,1,0,.03.02.05.03.08.04.14.09.29.14.43.01.04.02.07.04.11.07.22.14.44.21.66.01.04.03.08.04.12.12.37.25.75.37,1.12.05.15.1.29.15.43,0,.03.02.05.03.08.11.31.22.63.33.94.14.39.28.78.43,1.18.02.07.05.14.08.21.13.35.26.69.39,1.04,0,.02.02.04.02.06.15.4.31.79.46,1.19.16.41.32.81.49,1.22.15.37.31.75.46,1.12.02.04.04.09.06.14.15.37.31.74.47,1.1,0,.02.01.03.02.05,0,.01,0,.02.01.03.01.03.03.06.04.09.15.34.3.68.45,1.02.02.04.04.08.06.12.17.38.34.76.52,1.13h0c.14.31.28.62.43.92.05.11.1.21.15.32.15.32.3.64.46.95.06.12.11.23.17.35.16.34.33.67.5,1,0,0,0,.01,0,.02.19.38.39.76.58,1.14,0,0,0,0,0,.01.02.04.04.07.06.11.15.28.29.56.44.83.03.05.05.1.08.15.02.04.04.08.07.13.18.33.36.66.54.99.15.28.31.56.47.84.09.16.18.33.27.49.23.41.46.81.7,1.22.02.03.04.07.06.1.16.27.32.55.48.82.02.03.04.06.06.1.21.35.42.7.63,1.05.35.57.7,1.13,1.05,1.7.1.16.2.31.3.46.1.16.2.32.31.48.16.25.32.49.48.73.11.17.22.34.34.51.02.03.04.06.06.08.24.35.47.71.72,1.06.19.27.38.55.57.82.1.14.19.27.28.4.03.05.06.09.09.13.11.15.21.3.32.45.02.03.04.06.06.09"/>
          <g>
            <path class="cls-12" d="m359.44,85.37c-.12,2.42-.75,4.81-1.83,6.98"/>
            <path class="cls-12" d="m370.29,93.43c-1.77,4.68-4.22,9.68-7.36,13.58-4.51.14-9.01-2.3-11.35-6.16"/>
            <path class="cls-12" d="m377.42,104.76c-1.47,5.16-4.09,10.43-8.28,13.78-.94.76-2.25.85-3.45.81-4.48-.13-8.92-1.55-12.63-4.07"/>
            <path class="cls-12" d="m357.57,92.51c-1.2-.32-2.21-1.15-2.97-2.13-.76-.98-1.29-2.12-1.82-3.24"/>
          </g>
        </g>
      </g>
      <g>
        <g>
          <polygon class="cls-60" points="388.78 121.72 384.83 154.05 355.09 154.05 351.14 121.72 388.78 121.72"/>
          <polygon class="cls-29" points="374.82 121.72 370.87 154.05 355.09 154.05 351.14 121.72 374.82 121.72"/>
        </g>
        <g>
          <line class="cls-15" x1="351.9" y1="127.93" x2="388.03" y2="127.93"/>
          <line class="cls-15" x1="351.9" y1="131.16" x2="388.03" y2="131.16"/>
        </g>
      </g>
    </g>
    <g>
      <g>
        <rect class="cls-62" x="264.9" y="270.76" width="6.79" height="10.04" transform="translate(536.59 551.56) rotate(180)"/>
        <g>
          <path class="cls-27" d="m276.31,287.33h-29.31v-1.07c0-1.58.96-3,2.43-3.58l6.26-.45,5.55-5.1h12.59c1.37,0,2.48,1.11,2.48,2.48v7.72Z"/>
          <rect class="cls-52" x="265.21" y="287.33" width="11.1" height="2.66" transform="translate(541.53 577.32) rotate(180)"/>
          <rect class="cls-52" x="247.01" y="287.33" width="16.44" height="2.66" transform="translate(510.45 577.32) rotate(180)"/>
        </g>
      </g>
      <g>
        <rect class="cls-62" x="300.63" y="269.53" width="7.27" height="10.75"/>
        <path class="cls-27" d="m303.47,280.84h2.29c3.3,0,8.74,2.67,8.74,5.97v.58h-17.01v-.58c0-3.3,2.67-5.97,5.97-5.97Z"/>
        <rect class="cls-52" x="297.5" y="287.39" width="17.01" height="2.6"/>
        <polygon class="cls-27" points="309.88 283.75 299.56 283.75 299.56 275.96 308.91 275.96 309.88 283.75"/>
        <path class="cls-14" d="m299.43,282.42c2.05-.92,4.32-1.31,6.56-1.14"/>
      </g>
      <g>
        <polygon class="cls-55" points="257.52 141.96 261.87 273.11 264.07 273.11 259.73 141.96 285.95 141.89 285.95 141.89 257.52 141.96"/>
        <polygon class="cls-32" points="259.73 141.96 264.07 273.11 276.44 273.11 285.95 141.89 259.73 141.96"/>
      </g>
      <g>
        <polygon class="cls-71" points="268.44 141.89 268.46 141.99 293.1 142.55 306.73 273.11 311.02 273.11 297.39 142.55 268.44 141.89"/>
        <polygon class="cls-55" points="268.46 141.99 296.45 273.11 306.73 273.11 293.1 142.55 268.46 141.99"/>
      </g>
      <path class="cls-49" d="m243.89,121.64h0c2.5,2.17,6.29,1.9,8.46-.61l18.47-21.34c2.17-2.5,1.9-6.29-.61-8.46h0c-2.5-2.17-6.29-1.9-8.46.61l-18.47,21.34c-2.17,2.5-1.9,6.29.61,8.46Z"/>
      <g>
        <path class="cls-71" d="m304.49,100.7l-7.82,41.41-36.69.24-1.92-40.99c0-11.96,13.5-13.67,13.5-13.67l.69-.33h13.68l1.22.35s17.35,2.69,17.35,12.99Z"/>
        <polygon class="cls-27" points="272.24 87.36 276.7 111.88 285.92 87.36 272.24 87.36"/>
      </g>
      <circle class="cls-36" cx="278.27" cy="65.95" r="14.04" transform="translate(150.51 321.81) rotate(-76.8)"/>
      <g>
        <path class="cls-65" d="m285.16,79.09h-14.23c-2.41,0-4.36-1.95-4.36-4.36v-10.14c0-6.34,5.14-11.47,11.47-11.47h0c6.34,0,11.47,5.14,11.47,11.47v10.14c0,2.41-1.95,4.36-4.36,4.36Z"/>
        <g>
          <circle class="cls-30" cx="267.4" cy="72.62" r="3.5"/>
          <g>
            <path class="cls-5" d="m266.16,72.36c.94.03,1.84.56,2.32,1.36"/>
            <path class="cls-5" d="m268.02,70.82c-.72.16-1.36.64-1.71,1.29-.35.65-.4,1.45-.13,2.14"/>
          </g>
        </g>
        <g>
          <path class="cls-30" d="m278.84,94.1h0c-3.08,0-5.58-2.5-5.58-5.58v-12.31h11.16v12.31c0,3.08-2.5,5.58-5.58,5.58Z"/>
          <path class="cls-44" d="m273.25,88.41h0v-9.82h9.77v.04c0,5.4-4.38,9.77-9.77,9.77Z"/>
        </g>
        <path class="cls-30" d="m289.19,67.12c0,.96-.1,1.86-.29,2.72l-.03.28-.03.33-.5,6.1c-.08,1.01-1.8,3.49-3.22,5.37-1.24,1.65-2.93,2.89-4.88,3.57-.92.32-1.81.58-2.27.58-.28,0-.61-.03-.96-.1-2.69-.46-5.06-2.02-6.64-4.24-1.2-1.69-2.47-3.65-2.56-4.48l-.7-8.37c-.07-.43-.11-.88-.13-1.32,0-.06,0-.12,0-.18,0-.09,0-.18,0-.27,0-6.14,4.98-11.11,11.11-11.11s11.11,4.98,11.11,11.11Z"/>
        <g>
          <path class="cls-30" d="m293.8,72.62c0-1.93-1.57-3.5-3.5-3.5s-3.5,1.57-3.5,3.5,1.57,3.5,3.5,3.5,3.5-1.57,3.5-3.5Z"/>
          <g>
            <path class="cls-5" d="m291.54,72.36c-.94.03-1.84.56-2.32,1.36"/>
            <path class="cls-5" d="m289.68,70.82c.72.16,1.36.64,1.71,1.29.35.65.4,1.45.13,2.14"/>
          </g>
        </g>
        <path class="cls-65" d="m289.19,67.12c0,.96-.1,1.86-.29,2.72l-.03.28c-.52-.28-.98-.7-1.29-1.19-.8-1.24-.96-2.77-1.25-4.21-.29-1.45-.82-2.98-2.05-3.79-2.2-1.45-5.14.17-7.74-.22-1.62-.25-3.22-1.28-4.79-.79-1.27.4-2.03,1.67-2.64,2.86-.77,1.52-1.48,3.06-2.13,4.62,0-.09,0-.18,0-.27,0-6.14,4.98-11.11,11.11-11.11s11.11,4.98,11.11,11.11Z"/>
        <g>
          <path class="cls-65" d="m279.57,67.42c.49-1.31,1.88-2.05,3.27-2.02.69.01,1.38.22,1.94.59.56.38,1.02.89,1.23,1.57-.71-.01-1.26-.07-1.78-.11-.51-.04-.98-.05-1.44-.07-.46-.01-.92-.01-1.43,0-.52,0-1.07.05-1.78.03Z"/>
          <path class="cls-65" d="m267.73,67.42c.49-1.31,1.88-2.05,3.27-2.02.69.01,1.38.22,1.94.59.56.38,1.02.89,1.23,1.57-.71-.01-1.26-.07-1.78-.11-.51-.04-.98-.05-1.44-.07-.46-.01-.92-.01-1.43,0-.52,0-1.07.05-1.78.03Z"/>
          <path class="cls-5" d="m277.62,67.26l-2,5.63c-.29.8.09,1.69.87,2.04h0c.31.14.66.18.99.11l.88-.18"/>
          <g>
            <g>
              <path class="cls-44" d="m279.06,71.05s1.44-2.79,3.34-2.86c1.9-.07,3.68,2.41,3.68,2.41,0,0-1.61,1.73-3.51,1.8-1.9.07-3.51-1.35-3.51-1.35Z"/>
              <g>
                <path class="cls-61" d="m285.94,70.78s-.06.06-.15.15c-.43.39-1.69,1.39-3.23,1.46h-.11c-.81,0-1.57-.25-2.16-.54h0c-.74-.37-1.22-.78-1.22-.78,0,0,0,0,.01-.01.01-.01.02-.02.03-.03.09-.09.31-.29.62-.51,0,0,0-.01,0-.01.6-.43,1.55-.97,2.65-1.03.02,0,.04,0,.06,0,1.91-.08,3.5,1.33,3.5,1.33Z"/>
                <path class="cls-5" d="m278.94,69.98c.34-.48.78-.88,1.29-1.17"/>
                <g>
                  <circle class="cls-44" cx="282.63" cy="70.37" r="1.33"/>
                  <path class="cls-65" d="m282.01,70.37c0-.34.28-.62.62-.62s.62.28.62.62-.28.62-.62.62-.62-.28-.62-.62Z"/>
                </g>
                <path class="cls-25" d="m279.06,71.05c.36-.55.86-1,1.43-1.35.57-.35,1.24-.59,1.94-.64.7-.03,1.4.12,2.02.41.62.28,1.16.67,1.63,1.16l-.22-.03c.36-.11.48.15.17.36l-.08.05-.14-.09c-.52-.32-1.08-.58-1.64-.78-.57-.19-1.14-.3-1.71-.3-.57.02-1.15.14-1.71.36-.57.21-1.13.5-1.68.83Z"/>
              </g>
            </g>
            <g>
              <path class="cls-44" d="m275.21,71.05s-1.44-2.79-3.34-2.86c-1.9-.07-3.68,2.41-3.68,2.41,0,0,1.61,1.73,3.51,1.8,1.9.07,3.51-1.35,3.51-1.35Z"/>
              <g>
                <path class="cls-61" d="m268.33,70.78s.06.06.15.15c.43.39,1.69,1.39,3.23,1.46h.11c.81,0,1.57-.25,2.16-.54h0c.74-.37,1.22-.78,1.22-.78,0,0,0,0-.01-.01-.01-.01-.02-.02-.03-.03-.09-.09-.31-.29-.62-.51,0,0,0-.01,0-.01-.6-.43-1.55-.97-2.65-1.03-.02,0-.04,0-.06,0-1.91-.08-3.5,1.33-3.5,1.33Z"/>
                <path class="cls-5" d="m275.33,69.98c-.34-.48-.78-.88-1.29-1.17"/>
                <g>
                  <circle class="cls-44" cx="271.64" cy="70.37" r="1.33"/>
                  <path class="cls-65" d="m272.26,70.37c0-.34-.28-.62-.62-.62s-.62.28-.62.62.28.62.62.62.62-.28.62-.62Z"/>
                </g>
                <path class="cls-25" d="m275.21,71.05c-.36-.55-.86-1-1.43-1.35-.57-.35-1.24-.59-1.94-.64-.7-.03-1.4.12-2.02.41-.62.28-1.16.67-1.63,1.16l.22-.03c-.36-.11-.48.15-.17.36l.08.05.14-.09c.52-.32,1.08-.58,1.64-.78.57-.19,1.14-.3,1.71-.3.57.02,1.15.14,1.71.36.57.21,1.13.5,1.68.83Z"/>
              </g>
            </g>
          </g>
          <g>
            <path class="cls-65" d="m280.19,79.88c0,.67-.23,1.28-.63,1.75-.5.62-1.28,1.02-2.13,1.02s-1.63-.4-2.13-1.02c-.4-.47-.63-1.08-.63-1.75,0-.46.12-.91.32-1.29.46-.87,1.38-1.47,2.44-1.47s1.98.6,2.44,1.47c.2.38.32.83.32,1.29Z"/>
            <path class="cls-73" d="m279.56,81.63c-.5.62-1.28,1.02-2.13,1.02s-1.63-.4-2.13-1.02c.5-.61,1.28-1.01,2.13-1.01s1.63.4,2.13,1.01Z"/>
            <path class="cls-61" d="m279.87,78.59h-4.88c.46-.87,1.38-1.47,2.44-1.47s1.98.6,2.44,1.47Z"/>
          </g>
          <g>
            <path class="cls-65" d="m275.46,78.17h-3.08c0-1.02.83-1.85,1.85-1.85h3.08c0,1.02-.83,1.85-1.85,1.85Z"/>
            <path class="cls-65" d="m279.15,78.17h3.08c0-1.02-.83-1.85-1.85-1.85h-3.08c0,1.02.83,1.85,1.85,1.85Z"/>
          </g>
        </g>
        <g>
          <g>
            <line class="cls-4" x1="288.19" y1="74.07" x2="289.5" y2="68.19"/>
            <line class="cls-4" x1="267.04" y1="73.7" x2="266.68" y2="68.28"/>
          </g>
          <g>
            <path class="cls-33" d="m267.04,72.97l-.15,8.45,7.51,3.87c1.62.84,3.54.9,5.21.17l8.43-3.67.15-8.45-13.31.43-7.84-.8Z"/>
            <path class="cls-66" d="m267.03,73.93l-.13,7.48,7.51,3.87c1.62.84,3.54.9,5.21.17l8.43-3.67.13-7.48-13.31.43-7.84-.8Z"/>
            <g>
              <path class="cls-33" d="m288.15,75.87c-2.22-.1-4.44-.1-6.67-.08-2.22.02-4.44.1-6.66.19h.04c-1.31-.12-2.62-.21-3.93-.29-1.31-.09-2.62-.15-3.94-.19,1.3.23,2.59.44,3.9.62,1.3.19,2.6.36,3.91.51h.02s.03,0,.03,0c2.22-.05,4.44-.12,6.65-.24,2.22-.13,4.43-.27,6.65-.52Z"/>
              <path class="cls-33" d="m266.93,79.53c1.29.66,2.6,1.3,3.92,1.9,1.31.62,2.64,1.22,3.96,1.8l.1.04.11-.02c2.19-.49,4.38-.99,6.56-1.54,2.18-.56,4.35-1.13,6.5-1.8-2.23.34-4.43.78-6.64,1.22-2.2.45-4.39.96-6.58,1.48l.2.02c-1.34-.55-2.69-1.09-4.05-1.6-1.35-.53-2.72-1.02-4.09-1.49Z"/>
            </g>
          </g>
        </g>
      </g>
      <g>
        <g>
          <path class="cls-62" d="m270.42,148.47l-4.82-5.6c-.14-.17-.32-.28-.51-.36-.04-.02-.08-.03-.12-.04-.01,0-.02,0-.03,0-.13-.04-.27-.06-.41-.05l-6.97.37c-.71.04-1.26.67-1.22,1.42h0c.04.75.64,1.32,1.36,1.28l6.38-.34,4.42,5.14c.48.55,1.29.6,1.83.1.53-.5.57-1.35.1-1.91Z"/>
          <path class="cls-62" d="m271.75,143.93l-4.35-4.43c-.48-.48-1.21-.5-1.72-.08l-6.2,2.95c-.65.31-.94,1.12-.64,1.8.3.68,1.07.98,1.72.67l5.7-2.72,3.68,3.75c.51.52,1.33.51,1.83-.02.5-.54.49-1.4-.02-1.92Z"/>
          <path class="cls-62" d="m266.31,152.69l-5.16-5.26c-.53-.54-.54-1.42-.02-1.97h0c.51-.55,1.36-.56,1.89-.03l5.16,5.26c.53.54.54,1.42.02,1.97h0c-.51.55-1.36.56-1.89.03Z"/>
          <path class="cls-62" d="m261.72,154.56l-4.22-5.35c-.46-.59-.38-1.46.18-1.94h0c.56-.48,1.39-.4,1.86.19l4.22,5.35c.46.59.38,1.46-.18,1.94h0c-.56.48-1.39.4-1.86-.19Z"/>
          <path class="cls-62" d="m253.36,142.67c.79-2.55,3.56-3.89,6.18-3,2.62.89,4.1,3.68,3.3,6.23-.79,2.55-3.56,3.89-6.18,3-2.62-.89-4.1-3.68-3.3-6.23Z"/>
          <path class="cls-62" d="m264.78,140.28s-7.83-1.79-7.89-1.6c-.06.19-5.54,2.99-5.54,2.99l.93,3.65,2.87,2.77,9.64-7.8Z"/>
          <path class="cls-7" d="m263,145.2l1.07-.06,4.42,5.14c.48.55,1.29.6,1.83.1.53-.5.57-1.35.1-1.91l-4.82-5.6c-.14-.17-.32-.28-.51-.36-.04-.02-.08-.03-.12-.04-.01,0-.02,0-.03,0-.13-.04-.27-.06-.41-.05"/>
          <path class="cls-7" d="m265.3,142.56l.95-.43,3.68,3.75c.51.52,1.33.51,1.83-.02.5-.54.49-1.4-.02-1.92l-4.35-4.43c-.48-.48-1.21-.5-1.72-.08l-2.38,1.14"/>
          <path class="cls-7" d="m263.01,145.43l5.16,5.26c.53.54.54,1.42.02,1.97h0c-.51.55-1.36.56-1.89.03l-4.69-4.78"/>
          <path class="cls-7" d="m260.17,148.25l3.59,4.55c.46.59.38,1.46-.18,1.94h0c-.56.48-1.39.4-1.86-.19l-4.22-5.35"/>
        </g>
        <path class="cls-49" d="m253.28,146.04l5.63-5.96-4.91-24.87c-1.15-3.41-4.72-5.21-7.99-4h0c-3.26,1.2-4.98,4.94-3.83,8.35l11.1,26.48Z"/>
      </g>
      <g>
        <path class="cls-71" d="m329.07,134.41h0c3.06-2.74,3.32-7.43.58-10.49l-27.34-30.57c-2.74-3.06-7.43-3.32-10.49-.58h0c-3.06,2.74-3.32,7.43-.58,10.49l27.34,30.57c2.74,3.06,7.43,3.32,10.49.58Z"/>
        <g>
          <path class="cls-62" d="m298.82,146.97c-1.23-2.7-4.42-3.89-7.12-2.65s-3.89,4.42-2.65,7.12,4.42,3.89,7.12,2.65c2.7-1.23,3.89-4.42,2.65-7.12Z"/>
          <path class="cls-62" d="m296.92,143.32c-.43-.95-1.56-1.37-2.51-.94-.95.43-1.37,1.56-.94,2.51.43.95,1.56,1.37,2.51.94.95-.43,1.37-1.56.94-2.51Z"/>
          <polygon class="cls-62" points="296.17 154.09 303.46 150.46 299.63 143.41 295.33 142.3 296.17 154.09"/>
          <path class="cls-62" d="m285.63,156.71l3.81-2.24,5.03-3.64c.54-.39,1.3-.27,1.69.27l.1.14c.39.54.27,1.3-.27,1.69l-4.5,3.26c-.09.1-.19.19-.31.27l-4.23,2.49c-.57.34-1.32.15-1.65-.43l-.09-.15c-.34-.58-.15-1.32.43-1.65Z"/>
          <path class="cls-1" d="m294.28,154.16l-2.8,2.03c-.09.1-.19.19-.31.27l-4.23,2.49c-.57.34-1.32.15-1.65-.43l-.09-.15c-.34-.58-.15-1.32.43-1.65l3.81-2.24,1.7-1.23"/>
          <path class="cls-62" d="m280.91,152.93l3.96-4.44c.19-.21.43-.33.68-.38.05-.01.09-.03.14-.04l5.86-1.02c.66-.11,1.28.33,1.4.98l.02.09c.11.66-.33,1.28-.98,1.4l-5.53.96-3.67,4.12c-.44.5-1.21.54-1.71.1l-.07-.06c-.5-.44-.54-1.21-.1-1.71Z"/>
          <path class="cls-1" d="m289.42,149.97l-2.98.52-3.67,4.12c-.44.5-1.21.54-1.71.1l-.07-.06c-.5-.44-.54-1.21-.1-1.71l3.96-4.44c.19-.21.43-.33.68-.38.05-.01.09-.03.14-.04l3.66-.64"/>
          <path class="cls-62" d="m281.75,154.6c.6-.43,1.21-.87,1.81-1.3.59-.43,1.21-.82,1.79-1.26.51-.38.93-.91,1.54-1.14.57-.22,1.21-.22,1.8-.32.98-.17,1.96-.34,2.94-.51.37-.06.75-.13,1.12-.19.66-.11,1.28.33,1.4.98v.06c.13.66-.31,1.28-.97,1.4l-5.29.92-4.7,3.37c-.54.39-1.3.27-1.69-.28l-.04-.05c-.39-.54-.27-1.3.28-1.69Z"/>
          <path class="cls-1" d="m290.57,152.78l-2.68.47-4.7,3.37c-.54.39-1.3.27-1.69-.28l-.04-.05c-.39-.54-.27-1.3.28-1.69.6-.43,1.21-.87,1.81-1.3.59-.43,1.21-.82,1.79-1.26.51-.38.93-.91,1.54-1.14.57-.22,1.21-.22,1.8-.32.35-.06.7-.12,1.04-.18"/>
          <path class="cls-62" d="m280.6,148.07l4.96-3.57c.17-.12.35-.18.54-.21.13-.04.28-.07.43-.06l6.1.29c.67.03,1.18.6,1.15,1.26v.14c-.04.67-.6,1.18-1.27,1.15l-5.77-.27-4.65,3.35c-.54.39-1.3.27-1.69-.28l-.08-.11c-.39-.54-.27-1.3.28-1.69Z"/>
          <path class="cls-1" d="m289.7,146.94l-2.95-.14-4.65,3.35c-.54.39-1.3.27-1.69-.28l-.08-.11c-.39-.54-.27-1.3.28-1.69l4.96-3.57c.17-.12.35-.18.54-.21.13-.04.28-.07.43-.06l4.75.22"/>
          <path class="cls-62" d="m289.47,142.75l4.83,2.25c.73.34,1.59.02,1.93-.7h0c.34-.73.02-1.59-.7-1.93l-4.83-2.25c-.73-.34-1.59-.02-1.93.7h0c-.34.73-.02,1.59.7,1.93Z"/>
          <path class="cls-1" d="m295.52,142.37l-4.83-2.25c-.73-.34-1.59-.02-1.93.7h0c-.34.73-.02,1.59.7,1.93l2.78,1.3"/>
        </g>
        <path class="cls-71" d="m328.53,135.21l-24.86,16.79-7.02-9.8,23.37-19.17c3.36-2.35,8-1.52,10.35,1.84,2.35,3.37,1.52,8-1.84,10.35Z"/>
      </g>
    </g>
    <g>
      <rect class="cls-52" x="148.91" y="289.84" width="240.5" height="7.61"/>
      <g>
        <rect class="cls-38" x="138.91" y="170.78" width="260.5" height="119.06"/>
        <path class="cls-50" d="m138.91,170.78h163.41c32.86,0,59.53,26.67,59.53,59.53h0c0,32.86-26.67,59.53-59.53,59.53h-163.41v-119.06h0Z"/>
      </g>
      <g>
        <line class="cls-19" x1="138.91" y1="208.01" x2="399.41" y2="208.01"/>
        <line class="cls-19" x1="138.91" y1="237.27" x2="399.41" y2="237.27"/>
        <line class="cls-19" x1="138.91" y1="266.53" x2="399.41" y2="266.53"/>
      </g>
      <g>
        <polygon class="cls-63" points="399.41 196.68 158.91 183.68 138.91 170.78 399.41 170.78 399.41 196.68"/>
        <rect class="cls-76" x="129.37" y="154.05" width="279.57" height="29.93"/>
      </g>
      <g>
        <text class="cls-28" transform="translate(234.58 176.23)"><tspan class="cls-70" x="0" y="0">r</tspan><tspan x="6.06" y="0">e</tspan><tspan class="cls-57" x="15.64" y="0">c</tspan><tspan x="24.08" y="0">eption</tspan></text>
        <g>
          <polygon class="cls-27" points="227.96 167.23 221.93 167.23 221.93 161.21 217.32 161.21 217.32 167.23 211.3 167.23 211.3 171.84 217.32 171.84 217.32 177.86 221.93 177.86 221.93 171.84 227.96 171.84 227.96 167.23"/>
          <polygon class="cls-27" points="326.17 167.23 320.15 167.23 320.15 161.21 315.54 161.21 315.54 167.23 309.52 167.23 309.52 171.84 315.54 171.84 315.54 177.86 320.15 177.86 320.15 171.84 326.17 171.84 326.17 167.23"/>
        </g>
      </g>
    </g>
    <g>
      <g>
        <g>
          <g>
            <circle class="cls-48" cx="25.87" cy="104.48" r="7.26" transform="translate(-81.66 109.35) rotate(-78.69)"/>
            <circle class="cls-48" cx="45.67" cy="104.48" r="7.26" transform="translate(-60.5 62.89) rotate(-45)"/>
            <path class="cls-48" d="m53.52,125.98c-.6-1.06-1.32-2.07-1.99-3.09l-3.31-12.36c-.88-1.43-2.16-2.64-3.54-3.62-4.5-3.19-10.54-4.43-15.68-2.43-5.14,1.99-8.91,7.54-8.1,12.99.18,1.24.58,2.44.72,3.69.13,1.25-.03,2.6-.85,3.55-.54.63-1.31,1.02-1.89,1.61-1.72,1.71-1.39,4.83.33,6.55,1.74,1.16,3.43,2.16,5.62,1.79v.17h26.7v-.3c.74-.21,1.41-.55,1.97-1.1,1.91-1.87,1.33-5.12.02-7.44Z"/>
          </g>
          <g>
            <g>
              <circle class="cls-34" cx="49.9" cy="118.65" r="3.85"/>
              <g>
                <path class="cls-17" d="m51.26,118.37c-1.03.03-2.02.61-2.55,1.49"/>
                <path class="cls-17" d="m49.22,116.67c.79.17,1.5.7,1.88,1.42.38.71.43,1.6.14,2.35"/>
              </g>
            </g>
            <polygon class="cls-13" points="48.54 121.62 47.11 124.12 45.67 126.62 48.54 126.62 51.42 126.62 49.98 124.12 48.54 121.62"/>
          </g>
          <g>
            <rect class="cls-34" x="31.55" y="122.6" width="9.74" height="15.9" transform="translate(72.83 261.1) rotate(180)"/>
            <path class="cls-35" d="m41.28,133.39h0v-10.79h-9.56v1.23c0,5.28,4.28,9.56,9.56,9.56Z"/>
          </g>
          <path class="cls-34" d="m25.2,112.61c0,1.05.11,2.05.32,2.99l.07.67.55,5.04c.31,3.78,8.15,8.55,8.15,8.55.42.36,1.08.67,1.77.9.69.23,1.41.37,1.95.4,1.2.07,2.39-.31,3.35-1.07.24-.19.49-.36.74-.53,1.57-1.08,6.18-4.47,6.6-7.47l.77-7.53c.08-.48.13-.96.15-1.45,0-.16,0-.33,0-.5,0-6.75-5.47-12.22-12.22-12.22s-12.21,5.47-12.21,12.22Z"/>
          <path class="cls-48" d="m25.2,112.61c0,1.05.11,2.05.32,2.99l.07.67c3.94-2.8,6.98-6.88,8.45-11.49,3.23,2.57,8.87-.55,11.94,2.21,1.24,1.12,1.65,2.87,2.42,4.36.33.64.74,1.23,1.22,1.76,0-.16,0-.33,0-.5,0-6.75-5.47-12.22-12.22-12.22s-12.21,5.47-12.21,12.22Z"/>
          <g>
            <g>
              <circle class="cls-34" cx="24.73" cy="118.65" r="3.85"/>
              <g>
                <path class="cls-17" d="m23.37,118.37c1.03.03,2.03.61,2.55,1.49"/>
                <path class="cls-17" d="m25.41,116.67c-.79.17-1.5.7-1.88,1.42-.38.71-.43,1.6-.14,2.35"/>
              </g>
            </g>
            <polygon class="cls-13" points="25.87 121.62 24.43 124.12 22.99 126.62 25.87 126.62 28.74 126.62 27.3 124.12 25.87 121.62"/>
          </g>
          <g>
            <g>
              <g>
                <path class="cls-35" d="m36.53,116.92s-1.56-3.03-3.62-3.11-3.99,2.62-3.99,2.62c0,0,1.75,1.88,3.81,1.96,2.06.08,3.8-1.47,3.8-1.47Z"/>
                <g>
                  <path class="cls-79" d="m36.53,116.92s-1.73,1.52-3.8,1.44c-2.05-.08-3.66-1.74-3.66-1.74,0,0,1.73-1.52,3.8-1.44.03,0,.04,0,.07,0,1.19.06,2.23.65,2.87,1.12,0,0-.02,0,0,.01.45.33.72.6.72.6Z"/>
                  <path class="cls-68" d="m35.74,116.63c-.25.85-1.15,1.35-2,1.1-.85-.25-1.34-1.15-1.09-2,.06-.21.16-.39.29-.55,1.19.06,2.23.65,2.87,1.12,0,0-.02,0,0,.01-.02.11-.03.21-.06.32Z"/>
                  <path class="cls-17" d="m36.66,115.75c-.36-.52-.85-.96-1.4-1.27"/>
                  <path class="cls-48" d="m35.16,116.07c0-.49-.4-.89-.89-.89s-.89.4-.89.89.4.89.89.89.89-.4.89-.89Z"/>
                  <path class="cls-69" d="m36.53,116.91c-.39-.6-.93-1.08-1.55-1.47-.62-.38-1.34-.64-2.11-.69-.76-.03-1.52.13-2.19.45-.67.3-1.26.73-1.77,1.26l.24-.03c-.39-.12-.78-.24-1.18-.32.32.26.66.49,1,.71l.09.06.15-.09c.56-.35,1.18-.63,1.78-.84.61-.21,1.24-.33,1.85-.32.62.02,1.24.16,1.86.39.62.23,1.22.54,1.83.9Z"/>
                </g>
              </g>
              <g>
                <path class="cls-35" d="m41.62,116.92s1.42-2.93,3.29-3.01c1.87-.08,3.6,2.71,3.6,2.71,0,0-1.57,1.68-3.44,1.77-1.87.08-3.45-1.47-3.45-1.47Z"/>
                <g>
                  <path class="cls-79" d="m41.62,116.92s1.57,1.52,3.44,1.44c1.86-.08,3.32-1.74,3.32-1.74,0,0-1.57-1.52-3.44-1.44-.02,0-.04,0-.06,0-1.08.06-2.02.65-2.61,1.12,0,0,.02,0,0,.01-.41.33-.66.6-.66.6Z"/>
                  <path class="cls-17" d="m41.5,115.75c.33-.52.77-.96,1.27-1.27"/>
                  <path class="cls-68" d="m47.72,116.63c-.25.85-1.15,1.35-2,1.1-.85-.25-1.34-1.15-1.09-2,.06-.21.16-.39.29-.55,1.19.06,2.23.65,2.87,1.12,0,0-.02,0,0,.01-.02.11-.03.21-.06.32Z"/>
                  <path class="cls-48" d="m47.14,116.07c0-.49-.4-.89-.89-.89s-.89.4-.89.89.4.89.89.89.89-.4.89-.89Z"/>
                  <path class="cls-69" d="m41.62,116.91c.55-.35,1.1-.66,1.66-.9.28-.12.56-.21.84-.28.28-.07.56-.1.84-.11.56,0,1.12.12,1.67.32.55.22,1.1.5,1.61.84l.17.12.1-.09c.28-.25.56-.5.82-.79-.37.12-.71.27-1.05.42l.27.03c-.44-.52-.97-.94-1.58-1.25-.61-.32-1.32-.5-2.04-.46-.72.06-1.39.33-1.95.71-.55.39-1.03.87-1.35,1.45Z"/>
                </g>
              </g>
            </g>
            <g>
              <path class="cls-48" d="m42.17,112.48c.61.11,1.1.13,1.56.16.46.03.89.04,1.32.05.43,0,.86,0,1.32,0,.47-.02.95-.03,1.56-.11-.26-.56-.71-.95-1.21-1.22-.5-.27-1.07-.41-1.64-.42-.57,0-1.14.11-1.66.37-.51.25-.96.64-1.25,1.18Z"/>
              <path class="cls-48" d="m35.77,112.48c-.29-.54-.74-.92-1.25-1.18-.51-.25-1.08-.37-1.66-.37-.57,0-1.14.15-1.64.42-.5.27-.95.66-1.21,1.22.61.08,1.1.09,1.56.11.46.01.89.01,1.32,0,.43,0,.86-.02,1.32-.05.47-.03.95-.05,1.56-.16Z"/>
            </g>
            <g>
              <path class="cls-35" d="m36.43,125.16l1.06-.66c.55-.34,1.18-.52,1.83-.52h0c.87,0,1.7.35,2.32.95l.34.33-.17.27c-.39.63-1.07,1.03-1.81,1.04l-1.43.03c-.78.02-1.5-.38-1.91-1.05l-.24-.4Z"/>
              <path class="cls-72" d="m42.56,125.14c-1.07.59-2.32.81-3.55.77-.61-.04-1.22-.13-1.81-.32-.59-.18-1.14-.44-1.65-.78,2.23.95,4.7,1.07,7.01.33Z"/>
            </g>
            <path class="cls-17" d="m39.33,115.75v3.02l1.43.12c.86.07,1.24,1.13.61,1.73l-1.21,1.17"/>
          </g>
          <g>
            <g>
              <line class="cls-4" x1="27.97" y1="119.45" x2="25.35" y2="113.97"/>
              <line class="cls-4" x1="49.12" y1="119.08" x2="49.48" y2="113.66"/>
            </g>
            <g>
              <path class="cls-40" d="m49.12,118.35l.15,8.45-7.51,3.87c-1.62.84-3.54.9-5.21.17l-8.43-3.67-.15-8.45,13.31.43,7.84-.8Z"/>
              <path class="cls-46" d="m49.14,119.31l.13,7.48-7.51,3.87c-1.62.84-3.54.9-5.21.17l-8.43-3.67-.13-7.48,13.31.43,7.84-.8Z"/>
              <g>
                <path class="cls-33" d="m28.02,121.25c2.22-.1,4.44-.1,6.67-.08,2.22.02,4.44.1,6.66.19h-.04c1.31-.12,2.62-.21,3.93-.29,1.31-.09,2.62-.15,3.94-.19-1.3.23-2.59.44-3.9.62-1.3.19-2.6.36-3.91.51h-.02s-.03,0-.03,0c-2.22-.05-4.44-.12-6.65-.24-2.22-.13-4.43-.27-6.65-.52Z"/>
                <path class="cls-33" d="m49.24,124.91c-1.29.66-2.6,1.3-3.92,1.9-1.31.62-2.64,1.22-3.96,1.8l-.1.04-.11-.02c-2.19-.49-4.38-.99-6.56-1.54-2.18-.56-4.35-1.13-6.5-1.8,2.23.34,4.43.78,6.64,1.22,2.2.45,4.39.96,6.58,1.48l-.2.02c1.34-.55,2.69-1.09,4.05-1.6,1.35-.53,2.72-1.03,4.09-1.49Z"/>
              </g>
            </g>
          </g>
        </g>
        <g>
          <g>
            <rect class="cls-24" x="49.93" y="302.58" width="6.15" height="9.1" transform="translate(104.83 614.46) rotate(-179.78)"/>
            <polygon class="cls-64" points="45.72 319.79 72.28 319.9 72.28 318.63 59.41 310.6 45.76 310.55 45.72 319.79"/>
            <rect class="cls-31" x="48.13" y="307.13" width="10.26" height="3.44" transform="translate(105.34 617.91) rotate(-179.78)"/>
            <rect class="cls-31" x="45.72" y="319.84" width="26.49" height="2.23" transform="translate(1.23 -.22) rotate(.22)"/>
          </g>
          <path class="cls-41" d="m58.42,225.26l-1.3,79.19-8.2.56-.12-.51-2.45-10.04c-3.73-15.26-5.18-30.98-4.32-46.66l.17-3.26-2.82-15.04c-9.81-35.44-3.3-48.55-2.65-49.73.03-.06.05-.09.05-.09l16.22.19,3.15,17.46c1.66,9.21,2.42,18.57,2.27,27.93Z"/>
          <path class="cls-37" d="m50.79,225.26l-1.3,79.19-.69.05-2.45-10.04c-3.73-15.26-5.18-30.98-4.32-46.66l.17-3.26-2.82-15.04c-9.81-35.44-3.3-48.55-2.65-49.73l8.63.1,3.16,17.46c1.66,9.21,2.42,18.57,2.27,27.93Z"/>
        </g>
        <g>
          <g>
            <rect class="cls-31" x="3.5" y="304.1" width="8.24" height="8.23" transform="translate(-1.29 .03) rotate(-.24)"/>
            <path class="cls-64" d="m6.74,312.97h2.6c3.74-.03,9.92,2.98,9.94,6.72v.65S0,320.42,0,320.42v-.65c-.02-3.74,3-6.78,6.74-6.8Z"/>
            <rect class="cls-31" x=".01" y="320.38" width="19.28" height="2.94" transform="translate(-1.35 .04) rotate(-.24)"/>
            <polygon class="cls-64" points="14.02 316.24 2.32 316.29 2.29 307.46 12.88 307.41 14.02 316.24"/>
            <path class="cls-27" d="m2.17,314.78c1.1-.65,2.34-1.07,3.6-1.3,1.26-.22,2.57-.26,3.83-.03-1.28.05-2.53.15-3.76.37-1.24.21-2.45.55-3.66.95Z"/>
          </g>
          <polygon class="cls-60" points="45.72 180.16 12.37 306.15 4.95 304.61 41.83 180.08 45.72 180.16"/>
          <path class="cls-29" d="m41.83,180.08L4.95,304.61l-.84-.18.38-11.13c.54-16.11,3.45-32.05,8.64-47.3l1.08-3.18-.07-15.45c.11-39.64,11.67-47.6,11.67-47.6l16.02.31Z"/>
        </g>
        <g>
          <g>
            <path class="cls-42" d="m96.77,198.22c.17-.1.31-.23.41-.37.31-.42.36-1,.09-1.48l-.3-.52-1.91-3.37,4,4.24c.28.3.64.46,1.02.49.43.03.87-.11,1.2-.42.07-.07.13-.14.19-.21.28-.38.37-.86.26-1.31-.06-.26-.19-.5-.38-.7l-2.51-2.67,4.23,3.49c.25.21.56.33.86.35.5.04,1.01-.15,1.35-.56.02-.02.04-.05.06-.07.49-.67.38-1.61-.27-2.14l-1.93-1.59-2.79-2.31,4.54,2.55c.36.2.77.25,1.15.15.41-.1.77-.36.99-.75.39-.7.19-1.57-.44-2.03-.05-.04-.11-.07-.16-.1-.78-.44-1.55-.87-2.33-1.31-.18-.1-.47-.28-.79-.49-1.16-.75-2.14-1.74-2.87-2.91l-1.01-1.61s3.08.35,3.97.46c.69.09,1.33-.27,1.64-.84.1-.19.17-.4.19-.63.08-.88-.62-1.65-1.5-1.76l-1.77-.23-3.59-.46c-.25-.03-4-.55-5.4-.34-3.59.55-6.04,3.91-5.49,7.5.11.72.34,1.39.65,2.01.54,1.04,5.04,6.38,5.04,6.38l1.7,2.99c.37.66,1.25.95,1.9.57Z"/>
            <path class="cls-11" d="m94.23,184.74c2,.35,4.17-.61,5.24-2.34"/>
          </g>
          <path class="cls-42" d="m61.44,163.7h0c1.7-2.79,5.33-3.68,8.13-1.98l25.53,18.37-5.05,5.31-26.62-13.57c-2.79-1.7-3.68-5.33-1.98-8.13Z"/>
          <path class="cls-42" d="m70.13,171.05h0c-2.49,2.12-6.22,1.81-8.34-.68l-21.15-24.88c-2.12-2.49-1.81-6.22.68-8.34h0c2.49-2.12,6.22-1.81,8.34.68l21.15,24.88c2.12,2.49,1.81,6.22-.68,8.34Z"/>
        </g>
        <path class="cls-78" d="m24.74,136.39l3.25-1.36c.71-.3,1.48-.44,2.25-.42l10.33.25c1.15.03,2.24.54,2.99,1.42l7.67,8.96c2.16,2.05,3.08,5.08,2.43,7.98l-.93,4.19v23l-25.79-.33-.12-7.95c-.14-8.99-1.73-17.89-4.7-26.37l-.42-1.21c-1.52-3.09-.12-6.83,3.06-8.16Z"/>
        <path class="cls-24" d="m22.12,181.43h0c-3.26-.22-5.72-3.04-5.5-6.3l2.2-32.58c.22-3.26,3.04-5.72,6.3-5.5h0c3.26.22,5.72,3.04,5.5,6.3l-2.2,32.58c-.22,3.26-3.04,5.72-6.3,5.5Z"/>
      </g>
      <g>
        <g>
          <g>
            <path class="cls-54" d="m87.78,170.33h33.86c6.18,0,11.19,5.01,11.19,11.19v56.98c0,6.18-5.01,11.19-11.19,11.19h-33.85c-6.18,0-11.19-5.01-11.19-11.19v-56.98c0-6.18,5.01-11.19,11.19-11.19Z"/>
            <path class="cls-50" d="m91.83,170.33h33.86c6.18,0,11.19,5.01,11.19,11.19v56.98c0,6.18-5.01,11.19-11.19,11.19h-33.85c-6.18,0-11.19-5.01-11.19-11.19v-56.98c0-6.18,5.01-11.19,11.19-11.19Z"/>
          </g>
          <g>
            <path class="cls-54" d="m91.5,268.81h47.47c4.09,0,7.41-3.32,7.41-7.41h0c0-4.09-3.32-7.41-7.41-7.41h-47.47c-4.09,0-7.41,3.32-7.41,7.41h0c0,4.09,3.32,7.41,7.41,7.41Z"/>
            <path class="cls-50" d="m99.05,268.81h47.47c4.09,0,7.41-3.32,7.41-7.41h0c0-4.09-3.32-7.41-7.41-7.41h-47.47c-4.09,0-7.41,3.32-7.41,7.41h0c0,4.09,3.32,7.41,7.41,7.41Z"/>
          </g>
        </g>
        <path class="cls-50" d="m184.54,232.78h-55.53v-6.35h49.19c3.51,0,6.35,2.84,6.35,6.35h0Z"/>
        <g>
          <g>
            <circle class="cls-47" cx="150.15" cy="276.3" r="11.54" transform="translate(-153.35 358.6) rotate(-76.65)"/>
            <g>
              <line class="cls-16" x1="150.15" y1="235.34" x2="150.15" y2="317.26"/>
              <line class="cls-16" x1="191.12" y1="276.3" x2="109.19" y2="276.3"/>
              <line class="cls-16" x1="179.12" y1="247.33" x2="121.19" y2="305.27"/>
              <line class="cls-16" x1="179.12" y1="305.27" x2="121.19" y2="247.33"/>
            </g>
            <path class="cls-75" d="m144.29,276.3c0-3.24,2.62-5.86,5.86-5.86s5.86,2.62,5.86,5.86-2.62,5.86-5.86,5.86-5.86-2.62-5.86-5.86Z"/>
          </g>
          <path class="cls-39" d="m150.15,322.58c-25.52,0-46.28-20.76-46.28-46.28s20.76-46.28,46.28-46.28,46.28,20.76,46.28,46.28-20.76,46.28-46.28,46.28Zm0-86.45c-22.15,0-40.17,18.02-40.17,40.17s18.02,40.17,40.17,40.17,40.17-18.02,40.17-40.17-18.02-40.17-40.17-40.17Z"/>
          <path class="cls-31" d="m146.69,276.3c0-1.91,1.55-3.47,3.47-3.47s3.47,1.55,3.47,3.47-1.55,3.47-3.47,3.47-3.47-1.55-3.47-3.47Z"/>
          <circle class="cls-8" cx="150.15" cy="276.3" r="43.95" transform="translate(-153.83 356.82) rotate(-76.31)"/>
        </g>
        <g>
          <line class="cls-6" x1="142.56" y1="273.1" x2="162.86" y2="310.64"/>
          <rect class="cls-54" x="158.03" y="308.75" width="41.85" height="3.46"/>
        </g>
        <g>
          <g>
            <path class="cls-59" d="m126.3,184.11h-24.56c-2.51,0-4.54-2.03-4.54-4.54h0c0-2.51,2.03-4.54,4.54-4.54h24.56c2.51,0,4.54,2.03,4.54,4.54h0c0,2.51-2.03,4.54-4.54,4.54Z"/>
            <rect class="cls-59" x="101.58" y="159.97" width="26.8" height="23.39"/>
            <g>
              <path class="cls-53" d="m113.93,191.53h0c2.84,0,5.14-2.3,5.14-5.14v-15.26h-10.29v15.26c0,2.84,2.3,5.14,5.14,5.14Z"/>
              <path class="cls-23" d="m119.07,182.53h0v-11.4h-10.1v1.3c0,5.58,4.52,10.1,10.1,10.1Z"/>
            </g>
            <g>
              <g>
                <path class="cls-53" d="m98.21,166.96c0-1.86,1.51-3.38,3.38-3.38s3.38,1.51,3.38,3.38-1.51,3.38-3.38,3.38-3.38-1.51-3.38-3.38Z"/>
                <g>
                  <path class="cls-17" d="m100.39,166.71c.9.02,1.78.54,2.24,1.31"/>
                  <path class="cls-17" d="m102.18,165.22c-.69.15-1.31.62-1.65,1.24-.34.63-.38,1.4-.12,2.06"/>
                </g>
              </g>
              <g>
                <path class="cls-53" d="m131.39,166.96c0-1.86-1.51-3.38-3.38-3.38s-3.38,1.51-3.38,3.38,1.51,3.38,3.38,3.38,3.38-1.51,3.38-3.38Z"/>
                <g>
                  <path class="cls-17" d="m129.21,166.71c-.9.02-1.78.54-2.24,1.31"/>
                  <path class="cls-17" d="m127.41,165.22c.69.15,1.31.62,1.65,1.24.34.63.38,1.4.12,2.06"/>
                </g>
              </g>
              <path class="cls-27" d="m103.86,170.49c0-.76-.62-1.39-1.38-1.39s-1.38.62-1.38,1.39.62,1.39,1.38,1.39,1.38-.62,1.38-1.39Z"/>
              <circle class="cls-27" cx="127.36" cy="170.49" r="1.38"/>
            </g>
            <path class="cls-53" d="m102.08,160.58c0,1.11.12,2.16.34,3.16l.08.71.58,5.32c.33,3.99,8.61,9.03,8.61,9.03.44.38,1.14.71,1.87.95.73.24,1.49.39,2.06.43,1.27.07,2.52-.33,3.54-1.13.25-.2.52-.38.78-.56,1.66-1.14,6.53-4.72,6.98-7.89l.81-7.95c.08-.5.13-1.02.16-1.54,0-.17.01-.35.01-.52,0-7.13-5.78-12.9-12.9-12.9s-12.9,5.78-12.9,12.9Z"/>
            <path class="cls-22" d="m102.08,160.58c0,1.11.12,2.16.34,3.16l.08.71c4.16-2.96,7.37-7.27,8.93-12.14,3.41,2.72,9.37-.58,12.61,2.34,1.31,1.18,1.75,3.03,2.55,4.6.35.67.78,1.3,1.29,1.86,0-.17.01-.35.01-.52,0-7.13-5.78-12.9-12.9-12.9s-12.9,5.78-12.9,12.9Z"/>
            <g>
              <g>
                <g>
                  <path class="cls-23" d="m114.14,165.09s-1.58-3.06-3.67-3.14c-2.09-.08-4.03,2.65-4.03,2.65,0,0,1.77,1.9,3.85,1.98,2.08.08,3.85-1.48,3.85-1.48Z"/>
                  <g>
                    <path class="cls-78" d="m114.14,165.09s-1.75,1.53-3.84,1.45c-2.08-.08-3.7-1.76-3.7-1.76,0,0,1.75-1.53,3.84-1.45.03,0,.04,0,.07,0,1.2.07,2.25.65,2.91,1.13,0,0-.02,0,0,.01.46.33.73.61.73.61Z"/>
                    <path class="cls-58" d="m113.34,164.8c-.25.86-1.16,1.36-2.03,1.11-.86-.25-1.35-1.16-1.1-2.02.06-.21.16-.39.29-.55,1.2.07,2.25.65,2.91,1.13,0,0-.02,0,0,.01-.02.11-.03.22-.06.32Z"/>
                    <path class="cls-17" d="m114.27,163.91c-.37-.53-.86-.97-1.42-1.28"/>
                    <path class="cls-69" d="m112.76,164.23c0-.5-.4-.9-.9-.9s-.9.4-.9.9.4.9.9.9.9-.4.9-.9Z"/>
                    <path class="cls-69" d="m114.14,165.08c-.39-.6-.94-1.1-1.57-1.49-.62-.39-1.36-.65-2.13-.7-.77-.03-1.54.13-2.21.45-.68.31-1.28.74-1.79,1.27l.24-.03c-.39-.12-.79-.24-1.2-.32.32.26.67.49,1.01.72l.09.06.15-.09c.57-.35,1.19-.64,1.8-.85.62-.21,1.25-.33,1.87-.33.62.02,1.26.16,1.88.4.62.24,1.24.55,1.85.91Z"/>
                  </g>
                </g>
                <g>
                  <path class="cls-23" d="m119.29,165.09s1.43-2.97,3.32-3.05c1.89-.08,3.64,2.75,3.64,2.75,0,0-1.58,1.7-3.47,1.79-1.89.08-3.49-1.48-3.49-1.48Z"/>
                  <g>
                    <path class="cls-78" d="m119.29,165.09s1.59,1.53,3.48,1.45c1.88-.08,3.36-1.76,3.36-1.76,0,0-1.59-1.53-3.48-1.45-.02,0-.04,0-.06,0-1.09.07-2.04.65-2.64,1.13,0,0,.02,0,0,.01-.41.33-.66.61-.66.61Z"/>
                    <path class="cls-17" d="m119.17,163.91c.33-.53.78-.97,1.29-1.28"/>
                    <path class="cls-58" d="m125.46,164.8c-.25.86-1.16,1.36-2.03,1.11-.86-.25-1.35-1.16-1.1-2.02.06-.21.16-.39.29-.55,1.2.07,2.25.65,2.91,1.13,0,0-.02,0,0,.01-.02.11-.03.22-.06.32Z"/>
                    <path class="cls-69" d="m124.88,164.23c0-.5-.4-.9-.9-.9s-.9.4-.9.9.4.9.9.9.9-.4.9-.9Z"/>
                    <path class="cls-69" d="m119.29,165.08c.56-.36,1.11-.67,1.67-.91.28-.12.57-.21.85-.29.28-.07.57-.1.85-.12.56,0,1.13.12,1.69.33.55.22,1.12.51,1.62.85l.17.12.1-.09c.28-.26.56-.51.82-.8-.37.12-.72.28-1.06.43l.27.03c-.45-.53-.98-.95-1.6-1.27-.61-.32-1.33-.5-2.06-.46-.73.06-1.41.33-1.97.72-.56.39-1.04.88-1.37,1.46Z"/>
                  </g>
                </g>
              </g>
              <g>
                <path class="cls-59" d="m119.42,160.67c.65.11,1.16.14,1.65.17.49.03.94.04,1.39.05.45,0,.9,0,1.39,0,.49-.02,1.01-.03,1.65-.12-.28-.59-.75-1.01-1.28-1.29-.53-.28-1.13-.43-1.74-.44-.6,0-1.21.12-1.75.39-.54.27-1.02.67-1.32,1.25Z"/>
                <path class="cls-59" d="m113.25,160.73c-.3-.57-.78-.98-1.32-1.25-.54-.27-1.15-.4-1.75-.39-.6,0-1.2.16-1.74.44-.53.29-1,.7-1.28,1.29.65.08,1.16.1,1.65.12.49.01.94.01,1.39,0,.45,0,.9-.02,1.39-.05.49-.03,1-.06,1.65-.17Z"/>
              </g>
              <path class="cls-20" d="m116.7,165.68v2.35l1.11.1c.67.06.96.88.48,1.35l-.94.91"/>
              <g>
                <path class="cls-26" d="m119.84,172.43c0,.25-.03.5-.08.74-.24,1.08-1.02,1.96-2.03,2.36-.04.02-.08.03-.13.04-.35.14-.73.21-1.13.21-.93,0-1.79-.39-2.4-1.03-.07-.06-.13-.13-.18-.2-.33-.39-.57-.87-.68-1.39-.06-.23-.08-.48-.08-.74v-.02l3.36.02h3.36Z"/>
                <path class="cls-56" d="m117.6,175.58c-.35.14-.73.21-1.13.21-.93,0-1.79-.39-2.4-1.03.39-.33.89-.51,1.44-.51.92,0,1.72.54,2.1,1.33Z"/>
                <path class="cls-79" d="m119.84,172.43c0,.25-.03.5-.08.74h-6.55c-.06-.23-.08-.48-.08-.74v-.02l3.36.02h3.36Z"/>
              </g>
            </g>
            <g>
              <g>
                <line class="cls-21" x1="103.95" y1="167.8" x2="101.08" y2="161.8"/>
                <line class="cls-21" x1="127.07" y1="167.39" x2="127.46" y2="161.46"/>
              </g>
              <g>
                <path class="cls-40" d="m127.07,166.59l.16,9.23-8.21,4.23c-1.77.92-3.87.98-5.7.19l-9.21-4.01-.16-9.23,14.55.47,8.57-.88Z"/>
                <path class="cls-45" d="m127.09,167.64l.14,8.18-8.21,4.23c-1.77.92-3.87.98-5.7.19l-9.21-4.01-.14-8.18,14.55.47,8.57-.88Z"/>
                <path class="cls-41" d="m104,169.76c2.43-.11,4.86-.11,7.29-.09,2.43.02,4.85.11,7.28.21h-.05c1.43-.13,2.86-.23,4.3-.32,1.43-.1,2.87-.17,4.31-.21-1.42.25-2.84.48-4.26.67-1.42.2-2.85.39-4.27.56h-.02s-.03,0-.03,0c-2.43-.05-4.85-.13-7.27-.26-2.42-.14-4.85-.3-7.26-.56Z"/>
                <path class="cls-41" d="m127.19,173.76c-1.41.72-2.84,1.42-4.28,2.08-1.43.68-2.88,1.33-4.33,1.97l-.1.05-.12-.03c-2.4-.53-4.79-1.08-7.17-1.69-2.38-.62-4.76-1.24-7.11-1.97,2.43.37,4.84.85,7.25,1.34,2.41.5,4.8,1.05,7.19,1.62l-.22.02c1.47-.6,2.94-1.19,4.42-1.75,1.48-.58,2.97-1.12,4.47-1.63Z"/>
              </g>
            </g>
          </g>
          <g>
            <g>
              <rect class="cls-51" x="178.08" y="289.79" width="6.47" height="9.57" transform="translate(400.25 562.36) rotate(172.34)"/>
              <polygon class="cls-52" points="174.81 308.91 202.48 305.19 202.3 303.87 187.74 297.36 173.52 299.27 174.81 308.91"/>
              <rect class="cls-49" x="175.69" y="294.62" width="10.79" height="3.62" transform="translate(400.06 566.08) rotate(172.34)"/>
            </g>
            <path class="cls-49" d="m164.49,248.45l-35.09,4.79c-12,1.64-23.06-6.77-24.7-18.77h0l56.83-7.75c6-.82,11.53,3.38,12.35,9.38h0c.82,6-3.38,11.53-9.38,12.35Z"/>
            <path class="cls-49" d="m188.12,291.68h-13.57l-19.8-55.4c0-5.31,4.3-9.61,9.61-9.61h0c4.65,0,8.52,3.3,9.42,7.68.45,2.21.86,4.43,1.44,6.61l12.9,50.72Z"/>
          </g>
          <g>
            <path class="cls-77" d="m142.25,226.27h0c-3.47,1.48-7.48-.13-8.96-3.6l-11.95-28.04c-1.48-3.47.13-7.48,3.6-8.96h0c3.47-1.48,7.48.13,8.96,3.6l11.95,28.04c1.48,3.47-.13,7.48-3.6,8.96Z"/>
            <g>
              <path class="cls-34" d="m132.65,220.64h0c-.02-3.77,3.02-6.84,6.79-6.86l35.53,2.2-.04,7.9-35.42,3.56c-3.77.02-6.84-3.02-6.86-6.79Z"/>
              <g>
                <path class="cls-34" d="m188.77,225.72c.03-.19.01-.38-.04-.56-.14-.5-.56-.9-1.11-.98l-.59-.09-3.83-.57,5.8-.53c.4-.04.76-.22,1.01-.5.29-.32.45-.75.41-1.21,0-.1-.03-.19-.05-.28-.13-.46-.45-.82-.87-1.01-.24-.11-.51-.16-.79-.13l-3.65.33,5.36-1.17c.32-.07.6-.24.81-.46.34-.36.5-.88.39-1.41,0-.03-.01-.06-.02-.09-.22-.8-1.03-1.29-1.85-1.11l-2.44.54-3.54.78,4.81-2c.39-.16.67-.46.83-.81.17-.38.19-.83.02-1.24-.31-.74-1.12-1.12-1.87-.91-.06.02-.12.04-.18.06-.82.34-1.64.68-2.46,1.03-.19.08-.51.19-.87.32-1.3.45-2.69.61-4.06.46l-1.88-.2s2.18-2.21,2.81-2.84c.49-.49.61-1.21.35-1.81-.09-.2-.21-.38-.38-.54-.65-.61-1.68-.53-2.31.1l-1.27,1.25-2.58,2.54c-.18.18-2.9,2.8-3.59,4.04-1.78,3.17-.65,7.17,2.52,8.95.63.36,1.3.6,1.98.72,1.15.22,8.13-.03,8.13-.03l3.4.51c.75.11,1.52-.4,1.62-1.15Z"/>
                <path class="cls-9" d="m176.59,219.42c1.51-1.36,2.09-3.66,1.39-5.57"/>
              </g>
            </g>
          </g>
          <g>
            <path class="cls-31" d="m135.3,195.58l-7.01,22.83-.65,2.13.56,12.95h-30.95l.56-12.95-.65-2.13-7.01-22.83c-.27-5.77,4.36-10.59,10.15-10.59h24.85c5.8,0,10.42,4.82,10.16,10.59Z"/>
            <g>
              <path class="cls-2" d="m103.33,205.61c2.52,3.81,7.64,4.85,11.44,2.34"/>
              <path class="cls-2" d="m132.32,205.61c-2.52,3.81-7.64,4.85-11.44,2.34"/>
            </g>
            <rect class="cls-31" x="106.44" y="182.57" width="14.44" height="8.33"/>
          </g>
          <g>
            <g>
              <rect class="cls-51" x="169.41" y="291.12" width="6.47" height="9.57" transform="translate(344.84 592.06) rotate(-179.91)"/>
              <polygon class="cls-43" points="164.28 309.23 192.19 309.27 192.19 307.94 178.64 299.53 164.29 299.51 164.28 309.23"/>
              <rect class="cls-71" x="166.78" y="295.9" width="10.79" height="3.62" transform="translate(343.89 595.68) rotate(-179.91)"/>
            </g>
            <path class="cls-71" d="m153.32,254.52h-35.42c-12.11,0-21.93-9.82-21.93-21.93h0s57.35,0,57.35,0c6.06,0,10.97,4.91,10.97,10.97h0c0,6.06-4.91,10.97-10.97,10.97Z"/>
            <path class="cls-71" d="m178.93,293.81h-13.57l-19.8-51.15c0-5.31,4.3-9.61,9.61-9.61h0c4.65,0,8.52,3.3,9.42,7.68.45,2.21.86,4.43,1.44,6.61l12.9,46.48Z"/>
          </g>
          <g>
            <path class="cls-31" d="m87.54,227.95h0c-3.64-1-5.77-4.76-4.77-8.4l8.09-29.38c1-3.64,4.76-5.77,8.4-4.77h0c3.64,1,5.77,4.76,4.77,8.4l-8.09,29.38c-1,3.64-4.76,5.77-8.4,4.77Z"/>
            <path class="cls-2" d="m102.55,187.44c1.49,1.67,2.12,4.04,1.48,6.36l-5.32,19.33"/>
            <path class="cls-53" d="m81.94,221.75h0c.04-3.77,3.14-6.79,6.91-6.75l35.49,2.8-.18,7.9-35.47,2.96c-3.77-.04-6.79-3.14-6.75-6.91Z"/>
            <g>
              <g>
                <path class="cls-53" d="m131.47,216.99c-.34.82.07,1.66.92,1.9l1.9.52-1.49,2.37c-.48.77-.23,1.68.55,2.04.48.22,1.04.19,1.52-.05.31-.15.58-.38.77-.68l2.26-3.61.26-.41c.46-.73.26-1.59-.44-1.99,0,0,0,0,0,0-.09-.05-.19-.08-.29-.11l-.28-.08-3.52-.95c-.85-.23-1.82.24-2.17,1.06Z"/>
                <path class="cls-53" d="m128.61,222.17l3.8,1.03c.85.23,1.27,1.08.92,1.9,0,.02-.02.04-.03.06-.16.58-.68,1.07-1.35,1.2l-2.79.53c-.86.16-1.62-.33-1.71-1.11h0c-.02-.21,0-.41.08-.61l-.17-.05c-.85-.23-1.27-1.08-.92-1.9.34-.82,1.31-1.29,2.17-1.06Z"/>
                <path class="cls-53" d="m129.44,220.78l-.3.71c-.26.62.05,1.27.7,1.44l4.54,1.23c.65.18,1.39-.18,1.65-.8l.3-.71c.26-.62-.05-1.27-.7-1.44l-4.54-1.23c-.65-.18-1.39.18-1.65.8Z"/>
                <path class="cls-53" d="m133.79,213.41l5.03.31c.6.04,1.06.37,1.27.83.04.05.07.11.1.17l1.9,3.89c.36.74-.03,1.68-.88,2.09-.85.41-1.83.15-2.19-.59l-1.64-3.37-4.15-.26c-.91-.06-1.51-.79-1.36-1.63h0c.16-.85,1.02-1.49,1.93-1.43Z"/>
                <path class="cls-53" d="m134.64,213.66l-1.54,5.15-.58,2.05-3.67,4.67-3.69.72s-.09.02-.13.03h-.03s0,0,0,0c-2.3.41-4.57-.54-5.53-2.5-.98-2.01-.27-4.44,1.56-6l.04-.24,7.91-3.85c1.24-.61,2.64-.77,3.9-.45l1.77.44Z"/>
              </g>
              <g>
                <path class="cls-10" d="m133.34,223.88l.67.18c.85.23,1.82-.24,2.17-1.06h0c.34-.82-.07-1.66-.92-1.9l-3.8-1.03"/>
                <path class="cls-10" d="m133.79,213.41l5.03.31c.6.04,1.06.37,1.27.83.04.05.07.11.1.17l1.9,3.89c.36.74-.03,1.68-.88,2.09-.85.41-1.83.15-2.19-.59l-.61-1.26"/>
                <path class="cls-10" d="m136.34,221.98l1.57-2.5.26-.41c.46-.73.26-1.59-.44-1.99,0,0,0,0,0,0-.09-.05-.19-.08-.29-.11l-.28-.08-3.52-.95"/>
                <line class="cls-10" x1="135.17" y1="219.57" x2="133.02" y2="218.99"/>
                <path class="cls-10" d="m130.39,222.66l2.01.55c.85.23,1.27,1.08.92,1.9,0,.02-.02.04-.03.06-.16.58-.68,1.07-1.35,1.2l-2.79.53c-.86.16-1.62-.33-1.71-1.11"/>
                <line class="cls-10" x1="131.22" y1="225.9" x2="127.46" y2="225.78"/>
              </g>
            </g>
          </g>
        </g>
        <g>
          <path class="cls-31" d="m71,271.32h0c0-2.88,2.33-5.21,5.21-5.21h84.14c2.88,0,5.21,2.33,5.21,5.21h0c0,2.88-2.33,5.21-5.21,5.21h-84.14c-2.88,0-5.21-2.33-5.21-5.21Z"/>
          <g>
            <path class="cls-31" d="m75.51,268.84h0c-1.48,0-2.68-1.2-2.68-2.68v-80.25c0-1.48,1.2-2.68,2.68-2.68h0c1.48,0,2.68,1.2,2.68,2.68v80.25c0,1.48-1.2,2.68-2.68,2.68Z"/>
            <path class="cls-39" d="m75.48,188.17h-10.57c-1.5,0-2.71-1.21-2.71-2.71h0c0-1.5,1.21-2.71,2.71-2.71h10.57c1.5,0,2.71,1.21,2.71,2.71h0c0,1.5-1.21,2.71-2.71,2.71Z"/>
          </g>
          <path class="cls-50" d="m129.87,232.78h-55.53v-6.35h49.19c3.51,0,6.35,2.84,6.35,6.35h0Z"/>
        </g>
        <g>
          <g>
            <circle class="cls-47" cx="96.15" cy="276.3" r="11.54" transform="translate(-194.85 306.4) rotate(-76.72)"/>
            <g>
              <line class="cls-16" x1="96.15" y1="235.34" x2="96.15" y2="317.26"/>
              <line class="cls-16" x1="137.12" y1="276.3" x2="55.19" y2="276.3"/>
              <line class="cls-16" x1="125.12" y1="247.33" x2="67.19" y2="305.27"/>
              <line class="cls-16" x1="125.12" y1="305.27" x2="67.19" y2="247.33"/>
            </g>
            <path class="cls-75" d="m90.29,276.3c0-3.24,2.62-5.86,5.86-5.86s5.86,2.62,5.86,5.86-2.62,5.86-5.86,5.86-5.86-2.62-5.86-5.86Z"/>
          </g>
          <path class="cls-39" d="m96.15,322.58c-25.52,0-46.28-20.76-46.28-46.28s20.76-46.28,46.28-46.28,46.28,20.76,46.28,46.28-20.76,46.28-46.28,46.28Zm0-86.45c-22.15,0-40.17,18.02-40.17,40.17s18.02,40.17,40.17,40.17,40.17-18.02,40.17-40.17-18.02-40.17-40.17-40.17Z"/>
          <path class="cls-31" d="m92.69,276.3c0-1.91,1.55-3.47,3.47-3.47s3.47,1.55,3.47,3.47-1.55,3.47-3.47,3.47-3.47-1.55-3.47-3.47Z"/>
          <circle class="cls-8" cx="96.15" cy="276.3" r="43.95" transform="translate(-195.14 303.44) rotate(-76.14)"/>
        </g>
      </g>
      <g>
        <path class="cls-24" d="m17.59,176.18h0c.41-3.24,3.37-5.53,6.61-5.12l30.79,6.37-2.45,6.91-29.84-1.54c-3.24-.41-5.53-3.37-5.12-6.61Z"/>
        <g>
          <g>
            <path class="cls-24" d="m63.37,180.44c-.57.63-.47,1.54.24,2.02l1.57,1.07-2.11,1.69c-.68.55-.75,1.46-.15,2.04.36.35.89.5,1.4.44.33-.04.65-.16.92-.38l3.21-2.57.37-.29c.65-.52.74-1.37.23-1.95,0,0,0,0,0,0-.07-.07-.14-.14-.23-.19l-.23-.16-2.9-1.99c-.7-.48-1.74-.36-2.31.27Z"/>
            <path class="cls-24" d="m59.12,184.25l3.13,2.15c.7.48.81,1.39.24,2.02-.01.02-.03.03-.04.04-.33.48-.96.76-1.61.66l-2.71-.4c-.83-.12-1.37-.82-1.2-1.55h0c.04-.2.14-.38.26-.53l-.14-.09c-.7-.48-.81-1.39-.24-2.02.57-.63,1.61-.76,2.31-.27Z"/>
            <path class="cls-24" d="m60.32,183.25l-.5.55c-.44.48-.35,1.17.18,1.54l3.74,2.57c.54.37,1.32.27,1.76-.21l.5-.55c.44-.48.35-1.17-.18-1.54l-3.74-2.57c-.54-.37-1.32-.27-1.76.21Z"/>
            <path class="cls-24" d="m66.63,177.92l4.48,1.88c.53.22.85.67.89,1.15.02.06.03.12.04.18l.49,4.15c.09.79-.56,1.52-1.47,1.62-.9.11-1.71-.45-1.8-1.24l-.42-3.59-3.7-1.56c-.81-.34-1.13-1.2-.72-1.92h0c.41-.72,1.4-1.03,2.21-.69Z"/>
            <path class="cls-24" d="m67.32,178.42l-3.04,4.2-1.18,1.68-4.83,3.08-3.59-.52s-.08-.01-.13-.02h-.03s0,0,0,0c-2.23-.36-3.99-1.95-4.24-4.04-.25-2.14,1.17-4.14,3.33-4.97l.12-.21,8.43-.99c1.32-.16,2.65.14,3.7.83l1.47.96Z"/>
          </g>
          <g>
            <path class="cls-11" d="m62.88,187.31l.56.38c.7.48,1.74.36,2.31-.27h0c.57-.63.47-1.54-.24-2.02l-3.13-2.15"/>
            <path class="cls-11" d="m66.63,177.92l4.48,1.88c.53.22.85.67.89,1.15.02.06.03.12.04.18l.49,4.15c.09.79-.56,1.52-1.47,1.62-.9.11-1.71-.45-1.8-1.24l-.16-1.34"/>
            <path class="cls-11" d="m66.22,186.55l2.23-1.78.37-.29c.65-.52.74-1.37.23-1.95,0,0,0,0,0,0-.07-.07-.14-.14-.23-.19l-.23-.16-2.9-1.99"/>
            <line class="cls-11" x1="65.92" y1="183.98" x2="64.15" y2="182.76"/>
            <path class="cls-11" d="m60.59,185.26l1.66,1.14c.7.48.81,1.39.24,2.02-.01.02-.03.03-.04.04-.33.48-.96.76-1.61.66l-2.71-.4c-.83-.12-1.37-.82-1.2-1.55"/>
            <line class="cls-11" x1="60.31" y1="188.49" x2="56.92" y2="187.17"/>
          </g>
        </g>
      </g>
    </g>
  </g>
</svg>