<?xml version="1.0" encoding="UTF-8"?>
<svg id="Layer_2" data-name="Layer 2" xmlns="http://www.w3.org/2000/svg" viewBox="0 0 2055.83 2411.23">
  <defs>
    <style>
      .cls-1 {
        fill: #f7f7f7;
      }

      .cls-1, .cls-2, .cls-3 {
        stroke-width: 0px;
      }

      .cls-2 {
        fill: #2255a6;
      }

      .cls-3 {
        fill: #d1d3d4;
      }
    </style>
  </defs>
  <g id="Layer_1-2" data-name="Layer 1">
    <rect class="cls-1" width="2055.83" height="2411.23"/>
    <g>
      <path class="cls-3" d="M1545.57,1408.31c-5.75-2.33-11.42-4.84-17.1-7.33-2.22-.98-4.45-1.96-6.68-2.92.35-1.08.7-2.16,1.05-3.24,52.63,7.96,105.27,15.93,164.89,24.95-74.56-48.18-114.84-114.93-138.92-190.54-18.33-57.56-34.18-117.18-40.43-177.01-8.64-82.75-7.26-166.55-10.1-249.91-4.15-121.63-21.59-240.39-73.96-351.95-119.67-254.89-384.72-304.48-575.79-219.48-129.18,57.46-203.34,163.14-246.68,293.4-40.11,120.54-47.47,245.18-44.13,371.01,2.28,86.12-7.18,171.07-26.79,254.86-16.45,70.31-39.46,138.4-84.32,196.07-21.11,27.14-47.74,49.97-70.11,72.95h105.86c-11.94,6.39-20.18,10.82-28.43,15.2-213.1,113.26-335.95,348.32-305.17,583.9,12.61,96.51,65.27,156.73,159.06,182.58,62.94,17.35,127.41,17.68,191.85,17.69,343.56.06,687.12.34,1030.67-.71,62.07-.19,124.68-2.16,186.05-10.53,93.14-12.71,160.6-60.94,184.07-157.3,5.17-21.24,8.95-43.15,10.25-64.94,15.01-250.89-131.85-482.41-365.14-576.75ZM1265.88,589.46c47.56,48.38,48.1,123.33.64,176.56,50.76,6.7,100.35,13.25,154.13,20.35-3.52,35.34-5.82,69.29-10.45,102.92-17.52,127.08-59.02,244.43-144.92,342.42-53.58,61.12-118.42,104.14-200.97,115.48-86.85,11.94-161.93-15.84-227.65-70.65-92.47-77.13-143.17-179.82-173.03-293.86-10.5-40.09-16.19-81.44-24.94-126.66,237.22-30.78,439.31-132.69,627.19-266.56ZM772.56,1965.91c-7.28,37.73-26.45,61.59-63.71,76.14-29.42,11.49-58.08,12.13-87.77,11.49-24.14-.52-40.51-16.59-40.46-37.54.04-21.11,16.44-36.4,40.7-36.78,20.48-.32,41.09-.74,61.44,1.14,16.61,1.54,25.57-4.66,27.8-20.26,10.9-76.3,5.53-152.32-27.66-221.37-21.34-44.38-54.22-84.66-87.86-121.33-41.78-45.57-86.34-44.35-129.7-.42-20.8,21.07-36.21,47.45-54.06,71.43-12.41,16.66-24.86,33.3-37.16,50.05-2.12,2.89-4.04,6.09-5.27,9.43-24.54,67.21-32.77,136.22-23.14,207.3,2.65,19.53,11.33,27.73,32.41,25.25,21.69-2.55,43.88-1.73,65.8-1.01,20.78.68,34.56,15,35.46,34.53.9,19.59-11.2,35.77-31.42,38.7-44.71,6.48-87.34-1.35-126.46-23.91-23.34-13.46-32.76-36.82-36.45-62.28-11.55-79.75-.06-156.77,22.18-233.94,11.68-40.54,19.5-81.19,44.45-116.63,27.7-39.35,60.82-71.53,99.96-100.25,21.65-15.88,44.72-37.54,52.71-68.17,4.67-17.91,11.44-35.22,19.98-51.65,39.52-75.98,117.03-133.05,200.44-143.56,5.72-.72,11.54-.64,19.99-1.07v58.83c-18.21,4.58-36.56,7.07-53.23,13.75-61.24,24.52-101.35,69.98-125.25,130.77-4.21,10.7-.65,16.46,5.85,26.19,17.83,26.7,45.42,40.02,68.95,58.93,43.75,35.17,83.18,78.83,95.2,131.57,21.93,96.31,56,192.56,36.28,294.67ZM1182.43,1541.77c-11.17,3.28-23.31,12.15-29.54,21.93-41.63,65.35-81.78,131.65-124.4,200.9-5.67-8.41-10.12-14.54-14.08-20.96-36.14-58.53-72.79-116.75-107.86-175.91-9.41-15.87-21-23.54-38.42-28.15-49.91-13.18-97.12-33.19-136.61-67.38-15.64-13.55-28.53-30.28-40.98-47.68,53.83,3.62,106.23,7.43,157.33,38.63-20.74-46.71-40.03-90.14-60.75-136.79-2.26-5.1-4.55-10.24-6.85-15.42,161.27,139.8,321.13,144.03,486.19,13.04,0,0,0,.01-.01.02-8.87,18.65-17.74,37.3-27.3,57.39-.72,1.51-1.44,3.02-2.17,4.55-3.46,7.29-7.02,14.77-10.71,22.52,50.98-25.29,101.23-24.87,153.63-23.84-.16.85-.32,1.7-.5,2.53-.18.93-.38,1.85-.59,2.77-.07.33-.15.66-.23.98-.14.62-.29,1.24-.44,1.85-.19.77-.39,1.54-.59,2.3-.18.68-.37,1.36-.56,2.04-.13.45-.25.89-.39,1.33-.65,2.24-1.37,4.44-2.13,6.6-.16.47-.33.93-.5,1.39-.03.09-.07.19-.1.29-.18.47-.35.94-.53,1.41-.33.86-.67,1.72-1.01,2.57-.28.69-.57,1.38-.86,2.07-.32.74-.64,1.48-.97,2.21-.37.82-.74,1.63-1.13,2.44-.31.66-.62,1.31-.94,1.95-.43.86-.86,1.72-1.31,2.56-.38.74-.78,1.48-1.18,2.21-.33.61-.66,1.21-1,1.8-.08.13-.15.26-.22.38-.41.72-.82,1.44-1.25,2.15-.32.55-.65,1.09-.99,1.63-.56.92-1.14,1.83-1.73,2.73-.41.65-.84,1.29-1.27,1.92-.92,1.37-1.86,2.72-2.83,4.05-.34.48-.69.96-1.05,1.43-1.11,1.5-2.26,2.98-3.43,4.45-.61.75-1.22,1.5-1.84,2.24-.48.57-.97,1.15-1.46,1.72-.48.57-.97,1.13-1.47,1.69-.53.62-1.08,1.23-1.64,1.84-1.1,1.22-2.22,2.43-3.38,3.62-.53.57-1.08,1.13-1.64,1.69-.2.2-.39.4-.59.6-.57.58-1.15,1.16-1.73,1.72-.1.1-.2.2-.3.29-.47.48-.95.94-1.43,1.39-1.75,1.68-3.53,3.34-5.34,4.97-.56.5-1.12,1-1.69,1.5-.74.66-1.48,1.3-2.23,1.94-.75.65-1.5,1.29-2.26,1.93-41.73,35.08-91,54.76-142.74,69.97ZM1593.24,1634.63c-13.13,64.62-67.3,109.83-132.17,110.32-62.78.47-117.15-42.73-132.08-104.94-15.46-64.47,20.77-132.19,83.62-156.11,6.07-2.31,12.3-4.18,20.89-7.07-.46-1.82-.94-3.64-1.43-5.44-.36-1.34-.72-2.68-1.1-4.01-.43-1.56-.88-3.11-1.33-4.65-.45-1.55-.92-3.08-1.39-4.61-.47-1.52-.95-3.04-1.44-4.55-.45-1.4-.91-2.79-1.38-4.18-.35-1.04-.7-2.08-1.07-3.1-.28-.81-.56-1.62-.85-2.42-.55-1.53-1.11-3.04-1.68-4.55-.43-1.16-.87-2.31-1.32-3.45-.48-1.25-.98-2.49-1.49-3.72-.15-.4-.32-.79-.48-1.18-.44-1.08-.89-2.15-1.36-3.22-.07-.19-.16-.39-.24-.57-.41-.98-.84-1.95-1.28-2.91-.65-1.49-1.33-2.96-2.01-4.42-.21-.45-.42-.9-.64-1.35-.56-1.19-1.13-2.37-1.71-3.54-.56-1.13-1.13-2.26-1.71-3.37-.88-1.72-1.79-3.43-2.71-5.12-.26-.48-.52-.95-.79-1.42-.36-.65-.72-1.3-1.09-1.94-.44-.78-.89-1.55-1.34-2.31-.72-1.23-1.46-2.46-2.2-3.67-.33-.54-.67-1.08-1.01-1.62-1.17-1.87-2.37-3.72-3.6-5.54-.36-.53-.72-1.06-1.08-1.59-.47-.68-.94-1.35-1.42-2.02-.42-.6-.84-1.2-1.27-1.79-.43-.59-.86-1.18-1.3-1.76-.69-.94-1.39-1.86-2.1-2.78-.62-.81-1.25-1.62-1.9-2.42-.45-.57-.91-1.14-1.37-1.7-.45-.57-.92-1.13-1.39-1.69-.47-.56-.94-1.11-1.41-1.67-.95-1.1-1.91-2.2-2.89-3.28-.28-.32-.58-.65-.88-.97-.33-.37-.68-.74-1.03-1.11-.34-.38-.69-.76-1.06-1.13-.43-.46-.86-.91-1.29-1.36-4.14-4.28-8.51-8.36-13.13-12.25-16.8-14.15-36.89-25.63-61.03-34.02-.42-.15-.84-.29-1.27-.44,6.18-18.88,12.19-37.26,18.73-57.25,53.11,14.02,92.29,45.19,123.49,87.31,8.17,11.02,15.5,22.47,21.93,34.33,13.38,24.64,22.9,51.06,28.09,79.12,2.44,13.22,7.64,19.7,19.99,24.97,59.13,25.23,92.25,87.68,79.98,148.16Z"/>
      <path class="cls-2" d="M1910.71,1985.06c-1.3,21.79-5.08,43.7-10.25,64.94-23.47,96.36-90.93,144.59-184.07,157.3-61.37,8.37-123.98,10.34-186.05,10.53-343.55,1.05-687.11.77-1030.67.71-64.44-.01-128.91-.34-191.85-17.69-93.79-25.85-146.45-86.07-159.06-182.58-30.78-235.58,92.07-470.64,305.17-583.9,8.25-4.38,16.49-8.81,28.43-15.2,0,0,17.08-9.73,41.97-23.34-8.54,16.43-15.31,33.74-19.98,51.65-7.99,30.63-31.06,52.29-52.71,68.17-39.14,28.72-72.26,60.9-99.96,100.25-24.95,35.44-32.77,76.09-44.45,116.63-22.24,77.17-33.73,154.19-22.18,233.94,3.69,25.46,13.11,48.82,36.45,62.28,39.12,22.56,81.75,30.39,126.46,23.91,20.22-2.93,32.32-19.11,31.42-38.7-.9-19.53-14.68-33.85-35.46-34.53-21.92-.72-44.11-1.54-65.8,1.01-21.08,2.48-29.76-5.72-32.41-25.25-9.63-71.08-1.4-140.09,23.14-207.3,1.23-3.34,3.15-6.54,5.27-9.43,12.3-16.75,24.75-33.39,37.16-50.05,17.85-23.98,33.26-50.36,54.06-71.43,43.36-43.93,87.92-45.15,129.7.42,33.64,36.67,66.52,76.95,87.86,121.33,33.19,69.05,38.56,145.07,27.66,221.37-2.23,15.6-11.19,21.8-27.8,20.26-20.35-1.88-40.96-1.46-61.44-1.14-24.26.38-40.66,15.67-40.7,36.78-.05,20.95,16.32,37.02,40.46,37.54,29.69.64,58.35,0,87.77-11.49,37.26-14.55,56.43-38.41,63.71-76.14,19.72-102.11-14.35-198.36-36.28-294.67-12.02-52.74-51.45-96.4-95.2-131.57-23.53-18.91-51.12-32.23-68.95-58.93-6.5-9.73-10.06-15.49-5.85-26.19,23.9-60.79,64.01-106.25,125.25-130.77,16.67-6.68,35.02-9.17,53.23-13.75v-1c12.15.9,25.44,5,42.36,17.33,20.72,46.65,40.01,90.08,60.75,136.79-51.1-31.2-103.5-35.01-157.33-38.63,12.45,17.4,25.34,34.13,40.98,47.68,39.49,34.19,86.7,54.2,136.61,67.38,17.42,4.61,29.01,12.28,38.42,28.15,35.07,59.16,71.72,117.38,107.86,175.91,3.96,6.42,8.41,12.55,14.08,20.96,42.62-69.25,82.77-135.55,124.4-200.9,6.23-9.78,18.37-18.65,29.54-21.93,51.74-15.21,101.01-34.89,142.74-69.97.76-.64,1.51-1.28,2.26-1.93.75-.64,1.5-1.29,2.23-1.94.57-.5,1.13-1,1.69-1.5,1.81-1.63,3.59-3.29,5.34-4.97.48-.45.96-.92,1.43-1.39.1-.09.2-.19.3-.29.58-.57,1.16-1.14,1.73-1.72.2-.2.39-.4.59-.6.55-.56,1.1-1.12,1.64-1.69,1.14-1.19,2.27-2.4,3.38-3.62.55-.61,1.1-1.22,1.64-1.84.5-.56.99-1.12,1.47-1.69.49-.57.98-1.15,1.46-1.72.62-.74,1.23-1.49,1.84-2.24,1.17-1.47,2.32-2.95,3.43-4.45.36-.47.71-.95,1.05-1.43.97-1.33,1.91-2.68,2.83-4.05.43-.63.86-1.27,1.27-1.92.59-.9,1.17-1.81,1.73-2.73.33-.54.66-1.08.99-1.63.42-.71.84-1.43,1.25-2.15.07-.12.14-.25.22-.38.34-.59.67-1.2,1-1.8.4-.73.8-1.47,1.18-2.21.45-.84.88-1.7,1.31-2.56.32-.65.63-1.3.94-1.95.39-.81.76-1.62,1.13-2.44.33-.73.65-1.47.97-2.21.29-.68.58-1.38.86-2.07.34-.85.68-1.71,1.01-2.57.18-.47.36-.94.53-1.41.03-.1.07-.2.1-.29.18-.46.34-.92.5-1.39.76-2.16,1.48-4.36,2.13-6.6.14-.44.27-.88.39-1.33.19-.68.38-1.36.56-2.04.21-.76.4-1.53.59-2.3.16-.61.3-1.23.44-1.85.08-.33.16-.65.23-.98.21-.92.41-1.84.59-2.77.18-.84.34-1.68.5-2.53-52.4-1.03-102.65-1.45-153.63,23.84,3.69-7.75,7.25-15.23,10.71-22.52.73-1.53,1.45-3.04,2.17-4.55,9.56-20.09,18.43-38.74,27.3-57.39.01-.01.01-.02.01-.02l96.87,28.47c4.62,3.89,8.99,7.97,13.13,12.25.43.45.86.9,1.29,1.36.37.37.72.75,1.06,1.13.35.37.7.74,1.03,1.11.3.32.6.65.88.97.98,1.08,1.94,2.18,2.89,3.28.47.56.94,1.11,1.41,1.67.47.56.94,1.12,1.39,1.69.46.56.92,1.13,1.37,1.7.65.8,1.28,1.61,1.9,2.42.72.92,1.42,1.84,2.1,2.78.44.58.87,1.17,1.3,1.76.43.59.85,1.19,1.27,1.79.48.67.95,1.34,1.42,2.02.36.53.72,1.06,1.08,1.59,1.23,1.82,2.43,3.67,3.6,5.54.34.54.68,1.08,1.01,1.62.74,1.21,1.48,2.44,2.2,3.67.45.76.9,1.53,1.34,2.31.37.64.73,1.29,1.09,1.94.27.47.53.94.79,1.42.92,1.69,1.83,3.4,2.71,5.12.58,1.11,1.15,2.24,1.71,3.37.58,1.17,1.15,2.35,1.71,3.54.22.45.43.9.64,1.35.68,1.46,1.36,2.93,2.01,4.42.44.96.87,1.93,1.28,2.91.08.18.17.38.24.57.47,1.07.92,2.14,1.36,3.22.16.39.33.78.48,1.18.51,1.23,1.01,2.47,1.49,3.72.45,1.14.89,2.29,1.32,3.45.57,1.51,1.13,3.02,1.68,4.55.29.8.57,1.61.85,2.42.37,1.02.72,2.06,1.07,3.1.47,1.39.93,2.78,1.38,4.18.49,1.51.97,3.03,1.44,4.55.47,1.53.94,3.06,1.39,4.61.45,1.54.9,3.09,1.33,4.65.38,1.33.74,2.67,1.1,4.01.49,1.8.97,3.62,1.43,5.44-8.59,2.89-14.82,4.76-20.89,7.07-62.85,23.92-99.08,91.64-83.62,156.11,14.93,62.21,69.3,105.41,132.08,104.94,64.87-.49,119.04-45.7,132.17-110.32,12.27-60.48-20.85-122.93-79.98-148.16-12.35-5.27-17.55-11.75-19.99-24.97-5.19-28.06-14.71-54.48-28.09-79.12l63.29,18.6c5.68,2.49,11.35,5,17.1,7.33,233.29,94.34,380.15,325.86,365.14,576.75Z"/>
      <path class="cls-2" d="M1413.65,1419.85c-13.95,15.36-41.31,27.11-71.27,35.92,1.14-1.19,2.27-2.4,3.38-3.62.55-.61,1.1-1.22,1.64-1.84.5-.56.99-1.12,1.47-1.69.49-.57.98-1.15,1.46-1.72.62-.74,1.23-1.49,1.84-2.24,1.17-1.47,2.32-2.95,3.43-4.45.36-.47.71-.95,1.05-1.43.97-1.33,1.91-2.68,2.83-4.05.43-.63.86-1.27,1.27-1.92.59-.9,1.17-1.81,1.73-2.73.33-.54.66-1.08.99-1.63.42-.71.84-1.43,1.25-2.15.07-.12.14-.25.22-.38.34-.59.67-1.2,1-1.8.4-.73.8-1.47,1.18-2.21.45-.84.88-1.7,1.31-2.56.32-.65.63-1.3.94-1.95.39-.81.76-1.62,1.13-2.44.33-.73.65-1.47.97-2.21.29-.68.58-1.38.86-2.07.34-.85.68-1.71,1.01-2.57.18-.47.36-.94.53-1.41.03-.1.07-.2.1-.29.18-.46.34-.92.5-1.39.76-2.16,1.48-4.36,2.13-6.6.14-.44.27-.88.39-1.33.19-.68.38-1.36.56-2.04.21-.76.4-1.53.59-2.3.16-.61.3-1.23.44-1.85.08-.33.16-.65.23-.98.21-.92.41-1.84.59-2.77.18-.84.34-1.68.5-2.53-52.4-1.03-102.65-1.45-153.63,23.84,3.69-7.75,7.25-15.23,10.71-22.52.73-1.53,1.45-3.04,2.17-4.55,9.56-20.09,18.43-38.74,27.3-57.39.01-.01.01-.02.01-.02,0,0,14.64-4.86,35.84-5.55,24.14,8.39,44.23,19.87,61.03,34.02,4.62,3.89,8.99,7.97,13.13,12.25.43.45.86.9,1.29,1.36.37.37.72.75,1.06,1.13.35.37.7.74,1.03,1.11.3.32.6.65.88.97.98,1.08,1.94,2.18,2.89,3.28.47.56.94,1.11,1.41,1.67.47.56.94,1.12,1.39,1.69.46.56.92,1.13,1.37,1.7.65.8,1.28,1.61,1.9,2.42.72.92,1.42,1.84,2.1,2.78.44.58.87,1.17,1.3,1.76.43.59.85,1.19,1.27,1.79.48.67.95,1.34,1.42,2.02.36.53.72,1.06,1.08,1.59,1.23,1.82,2.43,3.67,3.6,5.54.34.54.68,1.08,1.01,1.62.74,1.21,1.48,2.44,2.2,3.67.45.76.9,1.53,1.34,2.31.37.64.73,1.29,1.09,1.94.27.47.53.94.79,1.42.92,1.69,1.83,3.4,2.71,5.12.58,1.11,1.15,2.24,1.71,3.37.58,1.17,1.15,2.35,1.71,3.54.22.45.43.9.64,1.35Z"/>
    </g>
  </g>
</svg>