<svg id="Group_1080" data-name="Group 1080" xmlns="http://www.w3.org/2000/svg" xmlns:xlink="http://www.w3.org/1999/xlink" width="400" height="400" viewBox="0 0 400 400">
  <defs>
    <clipPath id="clip-path">
      <rect id="Rectangle_482" data-name="Rectangle 482" width="400" height="400" fill="none"/>
    </clipPath>
  </defs>
  <g id="Group_1079" data-name="Group 1079" clip-path="url(#clip-path)">
    <path id="Path_504" data-name="Path 504" d="M115.159,132.257c-.241-13.776.581-27.556-.452-41.324-.429-5.73,1.218-8.165,7.7-7.272,12.125,1.668,12.18,1.3,12.194,13.58.005,5.764.015,11.53-.031,17.294-.024,3.065-.3,6.425,3.576,7.287,3.76.837,8.046.755,10.074-2.956,4.609-8.436,10.86-16.05,12.514-26.031,1.248-7.531,4.9-9.573,13.266-8.763,11.747,1.137,11.956,1.234,7.006,11.977-3.327,7.218-6.554,14.547-10.224,21.52-2.87,5.45-3.343,8.607,1.314,12.839,6.746,6.132,8.479,14.333,8.322,23.206-.284,16.019-.295,32.042-.4,48.063-.077,11.118-.065,11.123,11.36,11.054,3.262-.019,6.522-.1,9.784-.116,12.845-.068,13.089-.075,12.4-12.5-.381-6.807.67-13.5.587-20.233-.05-4.107,1.609-4.985,5.292-5.17,13.473-.677,14.011-.714,14.024,12.705.027,26.781-.51,53.56-.778,80.341-.027,2.661-.794,3.907-3.854,4.183-14.131,1.278-14.108,1.4-14.5-12.756-.223-8.015-.628-16.029-.683-24.044-.027-3.857-1.322-5.246-5.345-5.039-7.756.4-15.545.455-23.31.257-4.18-.107-4.976,1.631-4.924,5.385.14,10.269-.358,20.549-.1,30.811.114,4.59-1.211,6.528-5.881,6.1-2.739-.252-5.516-.077-8.276-.116-2.388-.034-3.334-.852-3.327-3.64.073-27.252-2.615-54.452-.921-81.764.769-12.388-.483-24.891-.506-37.343.068-7.646-3.5-9.894-10.651-10.354-15.2-2.579-15.7-2.168-15.692,12.938,0,7.017-.186,14.044.079,21.051.206,5.422-2.022,7.812-7.434,7.9-12.36.2-12.295.287-12.21-12.235.083-12.277.018-24.555.018-36.834" transform="translate(31.767 23.168)" fill="#fbb040"/>
    <path id="Path_505" data-name="Path 505" d="M74.376,144.662c-1.654-6.256.031-12.332,1.916-18.069A135.7,135.7,0,0,1,101.421,81.2c9.452-11.212,20.142-22.353,33.78-27.5,43.54-17.592,80.221-18.146,124.246-.878,41.981,16.6,76.311,49.364,97.671,88.952,7.159,13.1,12.8,26.911,20.252,39.818a50.525,50.525,0,0,1,2.207,5.145c-13.53.719-28.1-28.06-36.639-37.511-8.087-10.031-16.038-20.2-26.017-28.426-4.3-3.543-8.367-8.2-14.942-7.592-2.055.192-3.217-1.336-4.269-2.669C287.249,97.29,274.009,87.4,259.156,79.8c-49.776-27.477-108.07-20.21-149.89,18.5-14.039,12.3-22.057,28.327-31.535,43.582-.72,1.16-1.158,2.909-3.355,2.782" transform="translate(20.423 11.152)" fill="#0551b4"/>
    <path id="Path_506" data-name="Path 506" d="M185.033,0c-3.93,13.723-13.72,19.664-22.349,25.621-20.855,14.377-40.066,30.755-55.3,50.9.748,12.759-10.639,18.37-16.55,27-7.615,11.125-15.139,22.481-19.312,34.954-12.859,37-9.384,80.869,12.274,114,4.617,7.311,9.447,15.212,17.021,20.355,4.728,3.209,7.905,7.956,12.41,11.571,10.895,8.741,24.26,12.6,35.557,20.255.8.543,1.7,1.11,1.156,2.855-10.606,1.731-20.279-2.38-30-5.834-21.32-7.229-38.544-21.073-53.206-37.836-10.459-11.541-16.149-25.178-19.81-39.428C36.782,186.031,40.419,143.1,58.419,107.505c5.4-12.032,13.052-23.224,21.916-33.627,11.928-14.347,24.64-27.278,40.181-37.835C140.234,22.012,162.245,12.391,185.033,0" transform="translate(11.459)" fill="#ed1c24"/>
    <path id="Path_507" data-name="Path 507" d="M303.891,201.389c2.347,31.712-23.665,65.1-48.12,82.83-12.826,9.06-26.723,15.51-43.006,17-32.906,4.881-66.534,3.273-97.248-11.233A320.9,320.9,0,0,1,85.8,273.742c-18.78-11.771-34.158-29.474-47.545-47.055C31.77,217.189,24.68,208,20.113,197.247A53.828,53.828,0,0,0,13.859,187.1C8.285,179.393,6.687,169.774,0,160.549c9.721,2.171,15.348,6.876,20.229,13.207,7.376,9.57,13.916,19.7,21.938,28.886,8.407,9.626,16.429,19.438,26.408,27.541,5.228,4.245,9.986,9.1,17.348,9.162,2.05.018,3.077,1.5,4.221,2.791,13.187,14.855,30.256,24.19,48.38,30.723a130.863,130.863,0,0,0,76.5,4.068c41.223-9.372,70.508-38.876,88.864-75.539" transform="translate(0 44.557)" fill="#0551b4"/>
    <path id="Path_508" data-name="Path 508" d="M158.825,378.685c-.046-4.74,1.267-8.953,4.9-12,7.983-6.694,16.259-12.964,24.851-18.936,7.784-5.409,16.025-10.634,22.181-18.274,3.806-4.722,9.328-7.369,13.01-12.866a341.893,341.893,0,0,1,28.6-37.665c12.06-13.525,19.409-30.04,24.616-47.516,14.71-46.19-.324-98.45-36.315-130.784-9.514-8.613-20.66-14.968-31.4-24.062,26.892-.728,53.883,22.541,70.876,40.771,12.421,13.46,17.909,30.423,21.621,48.063,5.8,27.54,3.354,54.364-4.664,81.249-13.374,44.1-44.176,79.854-82.995,103.857-15.478,9.779-31.959,17.372-48.065,25.806-2.1,1.1-4.133,2.78-7.218,2.356" transform="translate(44.009 21.249)" fill="#ed1c24"/>
  </g>
</svg>
