<svg xmlns="http://www.w3.org/2000/svg" xmlns:xlink="http://www.w3.org/1999/xlink" width="27.995" height="28" viewBox="0 0 27.995 28">
  <defs>
    <clipPath id="clip-path">
      <rect id="Rectangle_481" data-name="Rectangle 481" width="27.995" height="28" fill="#fff"/>
    </clipPath>
  </defs>
  <g id="instagram_icon" transform="translate(0 0)">
    <g id="Group_1077" data-name="Group 1077" transform="translate(0 0)" clip-path="url(#clip-path)">
      <path id="Path_502" data-name="Path 502" d="M27.98,14.009c0,2.313.039,4.626-.008,6.939a6.859,6.859,0,0,1-4.109,6.412,6.513,6.513,0,0,1-2.906.632Q14,28,7.046,27.99A6.982,6.982,0,0,1,.273,22.873,7.144,7.144,0,0,1,.005,20.88Q0,14,0,7.12A7.02,7.02,0,0,1,7.073.01c4.6,0,9.211-.031,13.817.012a6.827,6.827,0,0,1,6.478,4.14,6.735,6.735,0,0,1,.615,2.967q0,3.439,0,6.88Zm-14,7.618a7.624,7.624,0,1,0-7.608-7.676,7.6,7.6,0,0,0,7.608,7.676M21.632,8.922a2.512,2.512,0,0,0,2.521-2.574,2.479,2.479,0,0,0-2.547-2.511A2.51,2.51,0,0,0,19.08,6.373a2.543,2.543,0,0,0,2.552,2.549" transform="translate(0 0)" fill="#fff"/>
      <path id="Path_503" data-name="Path 503" d="M5.262,10.322a5.079,5.079,0,1,1,5.075,5.1,5.1,5.1,0,0,1-5.075-5.1" transform="translate(3.654 3.655)" fill="#fff"/>
    </g>
  </g>
</svg>
