<svg xmlns="http://www.w3.org/2000/svg" width="39.2" height="28" viewBox="0 0 39.2 28">
  <path id="youtube_activity_24dp_E8EAED_FILL0_wght400_GRAD0_opsz24" d="M84.107-774.66a4.617,4.617,0,0,1-2.1-1.213,4.618,4.618,0,0,1-1.213-2.1,18.1,18.1,0,0,1-.443-2.613q-.163-1.54-.257-2.94Q80-785.207,80-786.933t.093-3.407q.093-1.4.257-2.94a18.1,18.1,0,0,1,.443-2.613,4.617,4.617,0,0,1,1.213-2.1,4.617,4.617,0,0,1,2.1-1.213,20.919,20.919,0,0,1,3.477-.443q2.4-.163,4.877-.257Q95.353-800,98.667-800t6.207.093q2.473.093,4.877.257a20.919,20.919,0,0,1,3.477.443,4.617,4.617,0,0,1,2.1,1.213,4.617,4.617,0,0,1,1.213,2.1,20.5,20.5,0,0,1,.583,3.477q.163,1.89.21,3.757a1.774,1.774,0,0,1-.747,1.493,1.9,1.9,0,0,1-1.68.327q-.327-.047-.63-.07t-.677-.023a9,9,0,0,0-6.6,2.73,9,9,0,0,0-2.73,6.6q0,.373.023.723a4.111,4.111,0,0,0,.117.723,1.963,1.963,0,0,1-.373,1.54,1.559,1.559,0,0,1-1.307.7q-.84,0-1.587.023t-1.307.023H98.667q-3.313,0-6.207-.093-2.473-.093-4.877-.257A20.912,20.912,0,0,1,84.107-774.66Zm12.227-7.467,6.907-4.013a.878.878,0,0,0,.467-.793.879.879,0,0,0-.467-.793l-6.907-4.013a.82.82,0,0,0-.933.023.932.932,0,0,0-.467.817v7.933a.931.931,0,0,0,.467.817A.82.82,0,0,0,96.333-782.127Zm15.4,6.393h-1.867a1.806,1.806,0,0,1-1.33-.537A1.806,1.806,0,0,1,108-777.6a1.806,1.806,0,0,1,.537-1.33,1.806,1.806,0,0,1,1.33-.537h1.867v-1.867a1.806,1.806,0,0,1,.537-1.33,1.806,1.806,0,0,1,1.33-.537,1.806,1.806,0,0,1,1.33.537,1.806,1.806,0,0,1,.537,1.33v1.867h1.867a1.806,1.806,0,0,1,1.33.537,1.806,1.806,0,0,1,.537,1.33,1.806,1.806,0,0,1-.537,1.33,1.806,1.806,0,0,1-1.33.537h-1.867v1.867a1.806,1.806,0,0,1-.537,1.33,1.806,1.806,0,0,1-1.33.537,1.806,1.806,0,0,1-1.33-.537,1.806,1.806,0,0,1-.537-1.33Z" transform="translate(-80 800)" fill="#fff"/>
</svg>
