<?xml version="1.0" encoding="UTF-8"?>
<svg id="Layer_2" data-name="Layer 2" xmlns="http://www.w3.org/2000/svg" viewBox="0 0 370.74 371">
  <defs>
    <style>
      .cls-1 {
        fill: #fff;
        stroke-width: 0px;
      }
    </style>
  </defs>
  <g id="Layer_1-2" data-name="Layer 1">
    <path class="cls-1" d="M221.39,237.57h36.21c2.74-17.52,5.44-34.7,8.19-52.31h-54.85c-.09-1.42-.22-2.5-.22-3.57-.02-10.6-.04-21.21,0-31.81.06-15.52,8.84-25.71,24.23-26.95,10.54-.85,21.18-.5,31.78-.67,2.11-.03,4.22,0,6.61,0v-45.85c-4.32-.59-8.81-1.34-13.34-1.78-17.52-1.73-35.04-3.54-52.45.95-26.42,6.81-44.26,25.92-47.56,52.99-1.74,14.29-1.23,28.86-1.67,43.3-.13,4.23-.02,8.46-.02,13.15h-41.69v52.39h41.45v133.13C78.74,359.98.59,291.79,0,186.52-.57,83.88,80.69,3.86,178.04.14c103.48-3.95,189.1,76.86,192.58,179.22,1.65,48.6-12.88,92.23-44.97,129.32-27.78,32.11-62.36,53.05-104.26,62.32v-133.42Z"/>
  </g>
</svg>