<?xml version="1.0" encoding="UTF-8"?>
<svg id="Layer_2" data-name="Layer 2" xmlns="http://www.w3.org/2000/svg" viewBox="0 0 168.9 168.89">
  <defs>
    <style>
      .cls-1 {
        fill: #fff;
      }
    </style>
  </defs>
  <g id="Layer_1-2" data-name="Layer 1">
    <path class="cls-1" d="m151.4,8.06c5.33,3.99,9.71,8.8,12.66,14.83.09.13.19.26.29.39,1.12,3.2,2.41,6.35,3.31,9.61.62,2.23.97,4.61.98,6.93.15,27.95.25,55.91.27,83.86,0,3.39-.59,6.79-.93,10.18-.71,7.2-5.46,16.12-9.57,20.32-1.82,1.85-3.7,3.63-5.55,5.45-.14.1-.28.2-.42.29-3.7,2.14-7.4,4.28-11.1,6.43-.72.23-1.44.47-2.17.7-.68.14-1.41.18-2.04.44-2.87,1.2-5.93,1.38-8.94,1.38-28.17.03-56.33-.18-84.5.02-10.7.08-20.12-3-28.27-9.67-7.83-6.42-12.82-14.75-14.65-24.8-.45-2.47-.63-5.01-.63-7.52C.07,99.38.2,71.87,0,44.36c-.05-6.5.75-12.75,3.34-18.61,1.65-3.74,3.93-7.3,6.44-10.54,3.61-4.67,8.27-8.28,13.62-10.83C28.85,1.78,34.56.2,40.71.19,68.75.17,96.78-.02,124.81,0c5.66,0,11.36.43,16.61,2.99,3.21,1.57,6.39,3.2,9.59,4.8.13.09.26.18.39.27Zm-28.42,101.48c.26-.47.53-.94.79-1.41.22-.36.44-.72.66-1.07.45-.87.91-1.74,1.34-2.62,2.23-4.51,3.83-9.2,4.01-14.28.12-.25.24-.5.36-.75-.11-3.86-.11-7.73-.35-11.58-.32-4.94-1.98-9.54-4.16-13.92-2.86-5.75-6.79-10.68-11.79-14.8-3.86-3.18-8.02-5.76-12.69-7.51-6.23-2.33-12.65-3.64-19.33-2.86-3.75.44-7.52.97-11.2,1.8-5.27,1.2-9.8,4.14-14,7.34-3.24,2.47-6.1,5.55-8.74,8.68-5.55,6.58-8.45,14.47-9.31,22.9-.75,7.28.02,14.56,2.84,21.47.1.13.19.25.29.38.46,1.12.85,2.27,1.39,3.34.39.76.98,1.41,1.48,2.11.09.21.19.43.28.64.06.1.09.22.09.34,0,.14,0,.28,0,.41,2.47,3.79,5.11,7.44,8.58,10.41l.39.28c1.56,1.1,3.13,2.2,4.69,3.3h.12s.12,0,.12,0c.32.37.59.84.98,1.11,4.44,3.01,9.26,5.12,14.56,6.07.14,0,.29,0,.43,0,.93.24,1.85.68,2.79.7,3.99.08,8,.22,11.99,0,6.14-.35,11.79-2.45,17.16-5.37.49-.33.99-.67,1.48-1,4.05-2.32,7.55-5.33,10.64-8.79,1.21-1.36,2.05-3.05,3.06-4.59.34-.24.69-.49,1.03-.73Zm7.14-86.29c-8.24-.53-14.81,7.15-15.05,14.43-.31,9.31,7.33,15.94,14.84,16.13,8.05.21,16.49-6.53,15.77-16.82-.48-6.75-6.65-14.25-15.55-13.74Z"/>
    <path class="cls-1" d="m66.82,109.55c-6.25-4.59-10.5-10.58-12.38-18.12-.58-2.31-.59-4.76-.87-7.14-.11-.92-.24-1.84-.37-2.76,0-.1.01-.2.01-.3.36-.99.86-1.95,1.06-2.97,1.06-5.27,3.36-9.94,6.95-13.9,1.69-1.87,3.71-3.44,5.58-5.15.14-.1.28-.2.43-.29,5.79-3.86,12.21-5.57,19.1-5.07,6.56.47,12.48,2.7,17.64,6.97,5.14,4.26,8.52,9.57,10.12,15.97,2.27,9.11.7,17.61-4.74,25.29-1.37,1.93-3.14,3.59-4.72,5.37-.13.09-.26.19-.4.28-4.35,3.71-9.41,5.97-14.96,7.19-.06.01-.13.03-.18,0-2.25-.9-4.46.56-6.58.27-3.27-.45-6.51-1.37-9.65-2.42-1.99-.67-3.77-1.94-5.65-2.95-.14-.1-.28-.19-.42-.29Z"/>
  </g>
</svg>